<?xml version="1.0" standalone="no"?>
  <!DOCTYPE svg PUBLIC "-//W3C//DTD SVG 1.1//EN" "http://www.w3.org/Graphics/SVG/1.1/DTD/svg11.dtd" >
  <svg>
  <metadata>
  Created by font-carrier
  </metadata>
  <defs>
  <font id="SitkaBanner" horiz-adv-x="2796" vert-adv-y="2796" >
    <font-face
      
      font-family="Sitka Banner"
      
      font-weight="400"
      
      font-stretch="normal"
      
      units-per-em="2250"
      
      ascent="1703"
      
      descent="-547"
      
    />
      <missing-glyph />

      

      
      <glyph glyph-name="uni21" unicode="&#x21;" d="M217 1364L217 1378L438 1378L438 1364L355 401L300 401L217 1364M205 100Q205 125 215 147.50Q225 170 241.50 187Q258 204 280.50 213.50Q303 223 328 223Q353 223 376 213.50Q399 204 416 187Q433 170 443 147.50Q453 125 453 100Q453 75 443 52.50Q433 30 416 13.50Q399-3 376-13Q353-23 328-23Q303-23 280.50-13Q258-3 241.50 13.50Q225 30 215 52.50Q205 75 205 100Z"  horiz-adv-x="659" vert-adv-y="2250"  />

      
      <glyph glyph-name="uni22" unicode="&#x22;" d="M497 1447L497 1465L702 1465L702 1448L627 927L573 927L497 1447M133 1447L133 1465L338 1465L338 1448L263 927L209 927L133 1447Z"  horiz-adv-x="835" vert-adv-y="2250"  />

      
      <glyph glyph-name="uni23" unicode="&#x23;" d="M395 366L186 366L186 478L428 478L501 731L245 731L245 843L532 843L632 1187L713 1187L614 843L879 843L978 1187L1058 1187L960 843L1169 843L1169 731L927 731L855 478L1110 478L1110 366L822 366L720 14L640 14L742 366L475 366L375 14L293 14L395 366M776 476L851 733L579 733L504 476L776 476Z"  horiz-adv-x="1354" vert-adv-y="2250"  />

      
      <glyph glyph-name="uni24" unicode="&#x24;" d="M112 255L138 255Q160 233 199 204Q238 175 287.50 148Q337 121 392.50 101Q448 81 504 77L504 452Q470 459 436 465.50Q402 472 368 481Q246 514 183 578.50Q120 643 120 736Q120 803 151 856Q182 909 234.50 946.50Q287 984 357 1006.50Q427 1029 504 1036L504 1183L568 1183L568 1040Q571 1040 574 1040Q577 1040 579 1040Q639 1040 692.50 1028.50Q746 1017 790 1000.50Q834 984 866.50 967Q899 950 919 939L887 776L862 776Q839 795 806.50 820.50Q774 846 735 870.50Q696 895 653.50 915.50Q611 936 568 945L568 597Q597 592 624 586.50Q651 581 682 574Q756 557 808 531.50Q860 506 892.50 473Q925 440 940 400Q955 360 955 315Q955 252 925 199.50Q895 147 842.50 106Q790 65 719.50 37.50Q649 10 568-2L568-251L504-251L504-11Q490-12 478-12.50Q466-13 452-13Q386-13 329.50-2.50Q273 8 226 23Q179 38 142 56Q105 74 79 89L112 255M504 950Q456 949 416 937.50Q376 926 347.50 905.50Q319 885 303 856.50Q287 828 287 793Q287 748 303 717Q319 686 347.50 664.50Q376 643 416 629.50Q456 616 504 607L504 950M568 79Q626 84 667.50 101Q709 118 735.50 144Q762 170 774.50 203Q787 236 787 273Q787 310 771 338Q755 366 726 386.50Q697 407 657 420.50Q617 434 568 443L568 79Z"  horiz-adv-x="1030" vert-adv-y="2250"  />

      
      <glyph glyph-name="uni25" unicode="&#x25;" d="M462 476Q376 476 310.50 513Q245 550 200.50 616.50Q156 683 133 774.50Q110 866 110 976Q110 1077 132.50 1167.50Q155 1258 199 1326.50Q243 1395 309 1435Q375 1475 462 1475Q555 1475 622.50 1434Q690 1393 733 1324.50Q776 1256 796.50 1165.50Q817 1075 817 976Q817 855 790.50 762Q764 669 716.50 605.50Q669 542 604 509Q539 476 462 476M462 542Q513 542 550 569Q587 596 610.50 650Q634 704 645.50 785.50Q657 867 657 976Q657 1076 646.50 1156.50Q636 1237 613 1293Q590 1349 553.50 1379.50Q517 1410 464 1410Q410 1410 373 1380.50Q336 1351 313 1295Q290 1239 280 1158.50Q270 1078 270 976Q270 878 279.50 798Q289 718 311.50 661Q334 604 371 573Q408 542 462 542M1380 1440L1478 1440L616-99L517-99L1380 1440M1529-120Q1443-120 1377.50-83Q1312-46 1267.50 20.50Q1223 87 1200 178.50Q1177 270 1177 380Q1177 481 1199.50 571.50Q1222 662 1266 730.50Q1310 799 1376 839Q1442 879 1529 879Q1622 879 1689.50 838Q1757 797 1800 728.50Q1843 660 1863.50 569.50Q1884 479 1884 380Q1884 259 1857.50 166Q1831 73 1783.50 9.50Q1736-54 1671-87Q1606-120 1529-120M1529-54Q1580-54 1617-27Q1654 0 1677.50 54Q1701 108 1712.50 189.50Q1724 271 1724 380Q1724 480 1713.50 560.50Q1703 641 1680 697Q1657 753 1620.50 783.50Q1584 814 1531 814Q1477 814 1440 784.50Q1403 755 1380 699Q1357 643 1347 562.50Q1337 482 1337 380Q1337 282 1346.50 202Q1356 122 1378.50 65Q1401 8 1438-23Q1475-54 1529-54Z"  horiz-adv-x="1994" vert-adv-y="2250"  />

      
      <glyph glyph-name="uni26" unicode="&#x26;" d="M396 746Q329 809 289 858Q249 907 227.50 949Q206 991 199.50 1028Q193 1065 193 1104Q193 1174 227 1230.50Q261 1287 313.50 1326.50Q366 1366 430.50 1387.50Q495 1409 555 1409Q629 1409 692 1389Q755 1369 801.50 1333.50Q848 1298 874 1249.50Q900 1201 900 1144Q900 1072 876.50 1009Q853 946 820 901L597 758L971 375Q1002 417 1025 465Q1048 513 1063.50 558Q1079 603 1087 639.50Q1095 676 1095 695L915 737L915 784L1396 784L1396 737L1280 713Q1260 708 1246 692Q1232 676 1221 653Q1196 602 1172.50 559Q1149 516 1124.50 476.50Q1100 437 1074.50 400Q1049 363 1021 325L1189 159Q1199 148 1213.50 134.50Q1228 121 1244.50 108Q1261 95 1277.50 85.50Q1294 76 1307 73L1428 47L1428 0L1222 0Q1178 0 1150 5Q1122 10 1099 23Q1076 36 1052.50 59.50Q1029 83 995 120L920 202Q872 146 820 102.50Q768 59 712 29.50Q656 0 595.50-15.50Q535-31 469-31Q389-31 317.50-6Q246 19 191.50 65.50Q137 112 105 179.50Q73 247 73 331Q73 364 81 400.50Q89 437 103.50 472.50Q118 508 137 541.50Q156 575 178 602L396 746M548 812Q605 845 641.50 882Q678 919 700 959.50Q722 1000 730.50 1044.50Q739 1089 739 1136Q739 1232 688 1284.50Q637 1337 553 1337Q512 1337 477.50 1321Q443 1305 417.50 1277.50Q392 1250 377.50 1212.50Q363 1175 363 1133Q363 1091 372 1054.50Q381 1018 402.50 981Q424 944 459.50 903Q495 862 548 812M444 694Q397 663 362 631Q327 599 303.50 560.50Q280 522 268.50 473.50Q257 425 257 360Q257 301 277 254Q297 207 332 173Q367 139 414.50 121Q462 103 518 103Q575 103 623.50 111.50Q672 120 714.50 137.50Q757 155 796 183Q835 211 873 250L444 694Z"  horiz-adv-x="1421" vert-adv-y="2250"  />

      
      <glyph glyph-name="uni27" unicode="&#x27;" d="M133 1447L133 1465L338 1465L338 1448L263 927L209 927L133 1447Z"  horiz-adv-x="470" vert-adv-y="2250"  />

      
      <glyph glyph-name="uni28" unicode="&#x28;" d="M679-340Q552-322 450-254.50Q348-187 276.50-72.50Q205 42 166.50 201.50Q128 361 128 563Q128 764 165.50 924.50Q203 1085 274.50 1201.50Q346 1318 448 1388Q550 1458 679 1479L679 1419Q577 1398 504.50 1328.50Q432 1259 385.50 1148.50Q339 1038 317.50 889.50Q296 741 296 561Q296 382 318.50 235.50Q341 89 388-19.50Q435-128 507-195.50Q579-263 679-283L679-340Z"  horiz-adv-x="741" vert-adv-y="2250"  />

      
      <glyph glyph-name="uni29" unicode="&#x29;" d="M61-283Q161-263 233.50-195.50Q306-128 353.50-19.50Q401 89 423.50 235.50Q446 382 446 561Q446 741 424 889.50Q402 1038 355.50 1148.50Q309 1259 236 1328.50Q163 1398 61 1419L61 1479Q190 1458 293 1388Q396 1318 467 1201.50Q538 1085 576 924.50Q614 764 614 563Q614 361 575 201.50Q536 42 464-72.50Q392-187 290-254.50Q188-322 61-340L61-283Z"  horiz-adv-x="741" vert-adv-y="2250"  />

      
      <glyph glyph-name="uni2a" unicode="&#x2a;" d="M921 1131L597 1067L584 1037L811 795L811 795L697 716L697 716L540 1005L506 1005L345 716L345 716L233 795L233 795L462 1039L451 1067L127 1130L127 1130L170 1260L170 1260L470 1118L498 1140L455 1465L455 1465L592 1465L592 1465L553 1141L578 1118L878 1260L878 1260L921 1131L921 1131Z"  horiz-adv-x="1044" vert-adv-y="2250"  />

      
      <glyph glyph-name="uni2b" unicode="&#x2b;" d="M189 605L623 605L623 1038L732 1038L732 605L1166 605L1166 498L732 498L732 64L623 64L623 498L189 498L189 605Z"  horiz-adv-x="1354" vert-adv-y="2250"  />

      
      <glyph glyph-name="uni2c" unicode="&#x2c;" d="M80-315Q115-287 148-254.50Q181-222 208-186Q235-150 254-111.50Q273-73 281-33Q237-7 206.50 10.50Q176 28 156.50 44.50Q137 61 128 80Q119 99 119 129Q119 144 126.50 161.50Q134 179 148 193.50Q162 208 182.50 217.50Q203 227 229 227Q272 227 301.50 212.50Q331 198 349 171.50Q367 145 375 108Q383 71 383 27Q383-41 354-101Q325-161 283-210.50Q241-260 195.50-297.50Q150-335 117-358L80-315Z"  horiz-adv-x="498" vert-adv-y="2250"  />

      
      <glyph glyph-name="uni2d" unicode="&#x2d;" d="M88 604L641 604L641 467L88 467L88 604Z"  horiz-adv-x="725" vert-adv-y="2250"  />

      
      <glyph glyph-name="uniad" unicode="&#xad;" d="M88 604L641 604L641 467L88 467L88 604Z"  horiz-adv-x="725" vert-adv-y="2250"  />

      
      <glyph glyph-name="uni2010" unicode="&#x2010;" d="M88 604L641 604L641 467L88 467L88 604Z"  horiz-adv-x="725" vert-adv-y="2250"  />

      
      <glyph glyph-name="uni2e" unicode="&#x2e;" d="M125 100Q125 125 135 147.50Q145 170 162 187Q179 204 201.50 213.50Q224 223 250 223Q275 223 297.50 213.50Q320 204 336.50 187Q353 170 363 147.50Q373 125 373 100Q373 75 363 52.50Q353 30 336.50 13.50Q320-3 297.50-13Q275-23 250-23Q224-23 201.50-13Q179-3 162 13.50Q145 30 135 52.50Q125 75 125 100Z"  horiz-adv-x="498" vert-adv-y="2250"  />

      
      <glyph glyph-name="uni2f" unicode="&#x2f;" d="M673 1491L788 1491L110-414L2-414L673 1491Z"  horiz-adv-x="891" vert-adv-y="2250"  />

      
      <glyph glyph-name="uni30" unicode="&#x30;" d="M565-27Q459-27 373 10.50Q287 48 226 116.50Q165 185 131.50 282Q98 379 98 498Q98 607 131 703.50Q164 800 225.50 871.50Q287 943 375.50 984.50Q464 1026 575 1026Q695 1026 783 982.50Q871 939 928.50 866Q986 793 1014 698.50Q1042 604 1042 502Q1042 392 1010 296Q978 200 916.50 128Q855 56 766.50 14.50Q678-27 565-27M580 39Q633 39 674 59Q715 79 745 112.50Q775 146 795.50 190.50Q816 235 828.50 284Q841 333 846.50 383.50Q852 434 852 481Q852 538 845 595.50Q838 653 823 706.50Q808 760 785 806.50Q762 853 729.50 887.50Q697 922 655 941.50Q613 961 561 961Q508 961 467 941.50Q426 922 396 888.50Q366 855 345.50 810.50Q325 766 312.50 717Q300 668 294.50 617.50Q289 567 289 520Q289 469 295 414Q301 359 314.50 305.50Q328 252 350.50 203.50Q373 155 405 118.50Q437 82 480.50 60.50Q524 39 580 39Z"  horiz-adv-x="1141" vert-adv-y="2250"  />

      
      <glyph glyph-name="uni31" unicode="&#x31;" d="M137 47L309 76Q329 80 340.50 95.50Q352 111 352 133L352 729L352 831L354 864L102 795L102 848L469 1020L530 1020Q528 988 526.50 947.50Q525 907 524 864Q523 821 522.50 779Q522 737 522 702L522 133Q522 110 533.50 95Q545 80 565 76L725 47L725 0L137 0L137 47Z"  horiz-adv-x="782" vert-adv-y="2250"  />

      
      <glyph glyph-name="uni32" unicode="&#x32;" d="M111 96Q206 173 287 233.50Q368 294 434 344.50Q500 395 551.50 439Q603 483 638 528Q673 573 691 622Q709 671 709 731Q709 779 700.50 820Q692 861 671 891Q650 921 615 938Q580 955 526 955Q475 955 424 933Q373 911 327.50 879.50Q282 848 242.50 813Q203 778 175 753L149 753L117 916Q137 929 177 951Q217 973 269.50 994.50Q322 1016 382.50 1031.50Q443 1047 505 1047Q589 1047 660.50 1030Q732 1013 784.50 977Q837 941 867 884.50Q897 828 897 750Q897 679 874 622Q851 565 810 517Q769 469 711.50 427Q654 385 585 342Q516 299 437.50 252.50Q359 206 276 150L276 150L393 152L827 152Q861 152 878 168Q895 184 901 207L930 315L979 315L979 0L111 0L111 96Z"  horiz-adv-x="1065" vert-adv-y="2250"  />

      
      <glyph glyph-name="uni33" unicode="&#x33;" d="M89-128L115-128Q141-149 183.50-180Q226-211 277-239.50Q328-268 384.50-288.50Q441-309 494-309Q571-309 623-289.50Q675-270 707-230.50Q739-191 752.50-132.50Q766-74 766 4Q766 66 749.50 121Q733 176 697 217Q661 258 603.50 281.50Q546 305 464 305L335 305L335 393L439 393Q572 393 645 469Q718 545 718 696Q718 748 711.50 791.50Q705 835 687 866.50Q669 898 636 916Q603 934 549 934Q498 934 445 915.50Q392 897 343.50 870Q295 843 253.50 813.50Q212 784 184 762L158 762L126 925Q146 936 180 953.50Q214 971 259 987Q304 1003 359.50 1014.50Q415 1026 479 1026Q566 1026 643.50 1005.50Q721 985 779.50 945Q838 905 872 847Q906 789 906 714Q906 667 891 616.50Q876 566 837.50 518.50Q799 471 734 429Q669 387 570 358L591 356Q631 352 674 341Q717 330 757 311Q797 292 832.50 265Q868 238 895 201Q922 164 937.50 117.50Q953 71 953 14Q953-48 932.50-103Q912-158 875.50-204Q839-250 790-286.50Q741-323 684-348.50Q627-374 564.50-387.50Q502-401 440-401Q371-401 312-390.50Q253-380 205-364.50Q157-349 119.50-331.50Q82-314 55-299L89-128Z"  horiz-adv-x="1053" vert-adv-y="2250"  />

      
      <glyph glyph-name="uni34" unicode="&#x34;" d="M49 157L743 1016L813 1016L813 166L1042 166L1042 61L813 61L813-252Q813-275 823.50-289.50Q834-304 856-309L952-336L952-381L494-381L494-336L602-309Q624-304 634.50-289.50Q645-275 645-252L645 61L49 61L49 157M256 166L645 166L645 624L647 745L647 792L137 163L180 166L256 166Z"  horiz-adv-x="1098" vert-adv-y="2250"  />

      
      <glyph glyph-name="uni35" unicode="&#x35;" d="M79-129L105-129Q129-149 169-179.50Q209-210 258-239Q307-268 362.50-289Q418-310 474-310Q538-310 586-289Q634-268 666.50-228Q699-188 715-129Q731-70 731 5Q731 108 701 173.50Q671 239 619.50 277Q568 315 498.50 329.50Q429 344 350 344Q321 344 293 340.50Q265 337 239.50 331Q214 325 192 317.50Q170 310 154 303L137 307L207 993L846 993L846 841L260 841L217 448Q244 460 271 467.50Q298 475 324.50 479.50Q351 484 375 485.50Q399 487 420 487Q517 487 606 462.50Q695 438 762 387Q829 336 869 256.50Q909 177 909 66Q909 2 890.50-57.50Q872-117 838.50-169Q805-221 759-264Q713-307 658-337.50Q603-368 541.50-385Q480-402 416-402Q340-402 280.50-390.50Q221-379 176-362.50Q131-346 99-329Q67-312 45-300L79-129Z"  horiz-adv-x="989" vert-adv-y="2250"  />

      
      <glyph glyph-name="uni36" unicode="&#x36;" d="M279 682Q322 740 366 777Q410 814 453 835Q496 856 538 864Q580 872 619 872Q694 872 763.50 842Q833 812 886 756.50Q939 701 970.50 622Q1002 543 1002 446Q1002 347 967.50 260.50Q933 174 872 109.50Q811 45 728 8Q645-29 548-29Q437-29 353 15Q269 59 212.50 139Q156 219 127.50 332.50Q99 446 99 584Q99 704 115.50 803Q132 902 163 983.50Q194 1065 238.50 1130Q283 1195 338 1246Q374 1279 413.50 1307Q453 1335 496.50 1355.50Q540 1376 588.50 1387.50Q637 1399 691 1399Q742 1399 780 1394Q818 1389 848 1380.50Q878 1372 902 1362.50Q926 1353 948 1344L916 1183L890 1183Q865 1197 831 1215.50Q797 1234 755 1250.50Q713 1267 665 1278.50Q617 1290 564 1290Q537 1290 516.50 1285Q496 1280 479.50 1270.50Q463 1261 449.50 1247.50Q436 1234 424 1218Q413 1204 395 1171.50Q377 1139 357 1081.50Q337 1024 317.50 936Q298 848 284 723L279 682L279 682M283 637Q281 609 280 574.50Q279 540 279 506Q279 389 303 301.50Q327 214 367 156Q407 98 459 69.50Q511 41 568 41Q629 41 676 65Q723 89 755 135Q787 181 803.50 248.50Q820 316 820 403Q820 576 751 669Q682 762 550 762Q519 762 484 755Q449 748 414 732.50Q379 717 345 693.50Q311 670 283 637Z"  horiz-adv-x="1089" vert-adv-y="2250"  />

      
      <glyph glyph-name="uni37" unicode="&#x37;" d="M860 844L826 841L742 841L246 841Q221 841 203 827.50Q185 814 178 786L137 606L88 606L88 993L987 993L987 950L336-414L205-414L860 844Z"  horiz-adv-x="977" vert-adv-y="2250"  />

      
      <glyph glyph-name="uni38" unicode="&#x38;" d="M418 688Q283 757 220.50 841Q158 925 158 1032Q158 1107 190.50 1174Q223 1241 280.50 1291.50Q338 1342 417 1371.50Q496 1401 590 1401Q680 1401 753.50 1374.50Q827 1348 879.50 1301.50Q932 1255 960.50 1192.50Q989 1130 989 1057Q989 1007 973 960Q957 913 926.50 870.50Q896 828 850.50 791.50Q805 755 745 727Q895 664 965.50 577Q1036 490 1036 367Q1036 288 1001.50 216Q967 144 903.50 89Q840 34 751 1.50Q662-31 553-31Q447-31 363.50-1.50Q280 28 222.50 79Q165 130 134.50 198Q104 266 104 344Q104 403 126.50 455Q149 507 190 551Q231 595 289 629.50Q347 664 418 688M702 741Q731 773 752.50 802.50Q774 832 788.50 866.50Q803 901 810 945Q817 989 817 1051Q817 1109 801.50 1160Q786 1211 755.50 1249Q725 1287 678.50 1309Q632 1331 571 1331Q518 1331 474 1311.50Q430 1292 398.50 1257.50Q367 1223 349.50 1175.50Q332 1128 332 1073Q332 1012 351.50 967.50Q371 923 414.50 886Q458 849 528.50 815Q599 781 702 741M461 674Q419 644 385 612Q351 580 327.50 543Q304 506 291.50 462.50Q279 419 279 365Q279 292 300.50 232Q322 172 361.50 129Q401 86 456 62.50Q511 39 578 39Q645 39 697.50 60.50Q750 82 786.50 120Q823 158 842.50 211Q862 264 862 326Q862 393 838 440.50Q814 488 765 526.50Q716 565 640 599.50Q564 634 461 674Z"  horiz-adv-x="1141" vert-adv-y="2250"  />

      
      <glyph glyph-name="uni39" unicode="&#x39;" d="M173-185L199-185Q224-200 257.50-218.50Q291-237 331.50-253.50Q372-270 419.50-281Q467-292 520-292Q547-292 569-287Q591-282 609.50-272.50Q628-263 643.50-250Q659-237 671-221Q684-203 702.50-165.50Q721-128 740-67Q759-6 776.50 79.50Q794 165 806 278L810 315L810 315Q767 256 723 219Q679 182 636 161Q593 140 551 132.50Q509 125 470 125Q395 125 325.50 155Q256 185 203 240.50Q150 296 118.50 374.50Q87 453 87 551Q87 650 121.50 736.50Q156 823 217 887.50Q278 952 361 989Q444 1026 541 1026Q652 1026 736 982Q820 938 876.50 858Q933 778 961.50 664.50Q990 551 990 413Q990 293 974.50 194Q959 95 929 13.50Q899-68 855.50-133Q812-198 757-249Q721-282 681.50-309.50Q642-337 598-357.50Q554-378 505.50-389.50Q457-401 403-401Q355-401 316-395.50Q277-390 245.50-381Q214-372 188.50-362Q163-352 141-343L173-185M806 360Q808 388 809 422.50Q810 457 810 491Q810 608 786 695.50Q762 783 722 841Q682 899 630 927.50Q578 956 521 956Q460 956 413 932Q366 908 334 862Q302 816 285.50 748.50Q269 681 269 594Q269 421 338 328Q407 235 539 235Q570 235 604.50 242Q639 249 674.50 264.50Q710 280 743.50 303.50Q777 327 806 360Z"  horiz-adv-x="1089" vert-adv-y="2250"  />

      
      <glyph glyph-name="uni3a" unicode="&#x3a;" d="M294 727Q268 727 246 736.50Q224 746 207 763Q190 780 180.50 803Q171 826 171 852Q171 877 180.50 899.50Q190 922 207 938Q224 954 246 963.50Q268 973 294 973Q319 973 342 963.50Q365 954 382 938Q399 922 409 899.50Q419 877 419 852Q419 826 409 803Q399 780 382 763Q365 746 342 736.50Q319 727 294 727M294-23Q268-23 246-13Q224-3 207 13.50Q190 30 180.50 52.50Q171 75 171 100Q171 126 180.50 148.50Q190 171 207 187.50Q224 204 246 213.50Q268 223 294 223Q319 223 342 213.50Q365 204 382 187.50Q399 171 409 148.50Q419 126 419 100Q419 75 409 52.50Q399 30 382 13.50Q365-3 342-13Q319-23 294-23Z"  horiz-adv-x="592" vert-adv-y="2250"  />

      
      <glyph glyph-name="uni3b" unicode="&#x3b;" d="M294 727Q268 727 246 736.50Q224 746 207 763Q190 780 180.50 803Q171 826 171 852Q171 877 180.50 899.50Q190 922 207 938Q224 954 246 963.50Q268 973 294 973Q319 973 342 963.50Q365 954 382 938Q399 922 409 899.50Q419 877 419 852Q419 826 409 803Q399 780 382 763Q365 746 342 736.50Q319 727 294 727M124-315Q160-287 192.50-254.50Q225-222 251.50-187Q278-152 297-113.50Q316-75 324-33Q282-7 251.50 10.50Q221 28 201.50 44.50Q182 61 172.50 80Q163 99 163 129Q163 144 170.50 161.50Q178 179 192 193.50Q206 208 226.50 217.50Q247 227 273 227Q316 227 345.50 212.50Q375 198 393 171.50Q411 145 419 108Q427 71 427 27Q427-18 413.50-60Q400-102 377.50-139.50Q355-177 327-210.50Q299-244 269.50-271.50Q240-299 211.50-321Q183-343 161-358L124-315Z"  horiz-adv-x="592" vert-adv-y="2250"  />

      
      <glyph glyph-name="uni3c" unicode="&#x3c;" d="M236 604L1111 1060L1111 938L365 552L1111 164L1111 42L236 497L236 604Z"  horiz-adv-x="1354" vert-adv-y="2250"  />

      
      <glyph glyph-name="uni3d" unicode="&#x3d;" d="M207 786L1147 786L1147 679L207 679L207 786M207 423L1147 423L1147 316L207 316L207 423Z"  horiz-adv-x="1354" vert-adv-y="2250"  />

      
      <glyph glyph-name="uni3e" unicode="&#x3e;" d="M243 164L990 552L243 938L243 1060L1118 604L1118 497L243 42L243 164Z"  horiz-adv-x="1354" vert-adv-y="2250"  />

      
      <glyph glyph-name="uni3f" unicode="&#x3f;" d="M343 729Q409 730 472 746Q535 762 584.50 799.50Q634 837 664.50 899.50Q695 962 695 1057Q695 1118 685.50 1168.50Q676 1219 655 1255Q634 1291 600.50 1310.50Q567 1330 519 1330Q474 1330 428.50 1316Q383 1302 339 1279.50Q295 1257 253.50 1229Q212 1201 175 1173L150 1173L123 1324Q144 1336 176 1352.50Q208 1369 249.50 1384.50Q291 1400 340.50 1410.50Q390 1421 447 1421Q536 1421 611.50 1394Q687 1367 742 1316.50Q797 1266 828 1194Q859 1122 859 1031Q859 944 826.50 868.50Q794 793 737 736Q680 679 602.50 643.50Q525 608 435 600L404 369L343 369L343 729M257 100Q257 125 266.50 147.50Q276 170 293 187Q310 204 333 213.50Q356 223 382 223Q407 223 429.50 213.50Q452 204 468.50 187Q485 170 494.50 147.50Q504 125 504 100Q504 75 494.50 52.50Q485 30 468.50 13.50Q452-3 429.50-13Q407-23 382-23Q356-23 333-13Q310-3 293 13.50Q276 30 266.50 52.50Q257 75 257 100Z"  horiz-adv-x="970" vert-adv-y="2250"  />

      
      <glyph glyph-name="uni40" unicode="&#x40;" d="M1150 178Q1106 125 1064.50 96Q1023 67 987 54Q951 41 922 39Q893 37 872 37Q809 37 762 61.50Q715 86 683.50 129.50Q652 173 636 232.50Q620 292 620 363Q620 435 635.50 506Q651 577 679.50 641Q708 705 749.50 760Q791 815 843 855Q895 895 956.50 917.50Q1018 940 1087 940Q1153 940 1199.50 915.50Q1246 891 1282 849L1324 933L1460 933L1333 385Q1327 359 1321 333Q1315 307 1310.50 284Q1306 261 1303.50 243.50Q1301 226 1301 217Q1301 203 1304 188Q1307 173 1317 160Q1327 147 1345 138.50Q1363 130 1392 130Q1439 130 1481 150Q1523 170 1558.50 205.50Q1594 241 1622.50 289.50Q1651 338 1671 393.50Q1691 449 1701.50 510Q1712 571 1712 632Q1712 805 1663 928.50Q1614 1052 1528 1131.50Q1442 1211 1324.50 1248Q1207 1285 1070 1285Q977 1285 886.50 1257Q796 1229 714.50 1176.50Q633 1124 563.50 1049Q494 974 443.50 880.50Q393 787 364.50 676.50Q336 566 336 442Q336 249 390.50 106.50Q445-36 536.50-129.50Q628-223 748.50-269Q869-315 1002-315Q1077-315 1157.50-302.50Q1238-290 1318-262.50Q1398-235 1473.50-191.50Q1549-148 1614-86L1662-161Q1600-215 1522.50-258.50Q1445-302 1355-332.50Q1265-363 1163.50-379.50Q1062-396 951-396Q841-396 742-369.50Q643-343 558.50-294Q474-245 406.50-174.50Q339-104 291.50-15.50Q244 73 218.50 177.50Q193 282 193 399Q193 543 226.50 671.50Q260 800 321 908Q382 1016 467.50 1101.50Q553 1187 657.50 1246.50Q762 1306 881.50 1338Q1001 1370 1131 1370Q1287 1370 1416 1323Q1545 1276 1636.50 1187Q1728 1098 1778.50 970.50Q1829 843 1829 681Q1829 585 1806.50 500Q1784 415 1749.50 346Q1715 277 1673.50 225Q1632 173 1594 143Q1554 111 1512.50 90.50Q1471 70 1430.50 58Q1390 46 1353 41Q1316 36 1286 36Q1253 36 1229.50 48Q1206 60 1191 80Q1176 100 1168.50 125.50Q1161 151 1160 178L1150 178M1290 804Q1270 812 1242.50 819Q1215 826 1186.50 831.50Q1158 837 1133 840Q1108 843 1093 843Q1012 843 952.50 803Q893 763 853.50 699.50Q814 636 795 556.50Q776 477 776 399Q776 342 787 294.50Q798 247 821.50 212.50Q845 178 883 159Q921 140 975 140Q1015 140 1063.50 164.50Q1112 189 1157 240L1290 804Z"  horiz-adv-x="2022" vert-adv-y="2250"  />

      
      <glyph glyph-name="uni41" unicode="&#x41;" d="M-57 47L29 72Q49 78 64.50 94.50Q80 111 88 131L485 1169L606 1399L645 1399L1135 131Q1143 111 1158.50 94.50Q1174 78 1194 72L1280 47L1280 0L793 0L793 47L967 80L801 512L317 512L162 84L332 47L332 0L-57 0L-57 47M770 588L606 1010L556 1145L555 1145L348 588L770 588Z"  horiz-adv-x="1225" vert-adv-y="2250"  />

      
      <glyph glyph-name="uni42" unicode="&#x42;" d="M47 47L174 74Q194 79 207.50 95Q221 111 221 133L221 1245Q221 1268 207.50 1284Q194 1300 174 1305L47 1331L47 1378L545 1378Q695 1378 791.50 1352.50Q888 1327 943 1284.50Q998 1242 1019 1187Q1040 1132 1040 1073Q1040 1008 1019 953Q998 898 959 854Q920 810 865 778.50Q810 747 743 729L743 729Q823 726 893.50 701.50Q964 677 1016.50 634.50Q1069 592 1099.50 532Q1130 472 1130 397Q1130 318 1107.50 258Q1085 198 1045.50 154Q1006 110 952.50 80.50Q899 51 837.50 33Q776 15 709 7.50Q642 0 575 0L47 0L47 47M492 743Q592 743 660.50 761Q729 779 771 812.50Q813 846 831.50 894.50Q850 943 850 1004Q850 1084 829.50 1141Q809 1198 768 1234.50Q727 1271 665.50 1288Q604 1305 522 1305L401 1305L401 743L492 743M612 74Q772 74 852 140Q932 206 932 356Q932 444 910 504.50Q888 565 842 602.50Q796 640 724.50 657Q653 674 555 674L401 674L401 74L612 74Z"  horiz-adv-x="1210" vert-adv-y="2250"  />

      
      <glyph glyph-name="uni43" unicode="&#x43;" d="M1214 269L1214 185Q1173 150 1119 112.50Q1065 75 1001.50 43.50Q938 12 867-8.50Q796-29 722-29Q571-29 449.50 20.50Q328 70 242 162.50Q156 255 109.50 387.50Q63 520 63 686Q63 846 113.50 979Q164 1112 253 1207Q342 1302 462.50 1354.50Q583 1407 724 1407Q773 1407 832 1400Q891 1393 950 1382Q1009 1371 1063 1357Q1117 1343 1157 1329L1157 1010L1104 1010L1040 1185Q1035 1204 1024 1213Q1013 1222 999 1230Q967 1248 927 1264Q887 1280 843 1292.50Q799 1305 754.50 1312Q710 1319 669 1319Q580 1319 505 1281.50Q430 1244 376 1169Q322 1094 292 981.50Q262 869 262 719Q262 406 395 249Q528 92 776 92Q858 92 922 109.50Q986 127 1037 153.50Q1088 180 1126.50 211Q1165 242 1196 269L1214 269Z"  horiz-adv-x="1243" vert-adv-y="2250"  />

      
      <glyph glyph-name="uni44" unicode="&#x44;" d="M47 47L174 74Q194 79 207.50 95Q221 111 221 133L221 1245Q221 1268 207.50 1284Q194 1300 174 1305L47 1331L47 1378L618 1378Q685 1378 762 1365Q839 1352 915 1321Q991 1290 1061 1238.50Q1131 1187 1185 1110Q1239 1033 1271 927.50Q1303 822 1303 684Q1303 508 1248.50 379Q1194 250 1100 166Q1006 82 880.50 41Q755 0 614 0L47 0L47 47M631 74Q751 74 839.50 113Q928 152 987 226Q1046 300 1075 408Q1104 516 1104 653Q1104 804 1065.50 924.50Q1027 1045 957 1129.50Q887 1214 788.50 1259.50Q690 1305 571 1305L401 1305L401 74L631 74Z"  horiz-adv-x="1366" vert-adv-y="2250"  />

      
      <glyph glyph-name="uni45" unicode="&#x45;" d="M47 47L174 74Q194 79 207.50 95Q221 111 221 133L221 1245Q221 1268 207.50 1284Q194 1300 174 1305L47 1331L47 1378L1051 1378L1051 1055L995 1055L924 1268Q919 1283 910 1293Q901 1303 883 1303L401 1303L401 756L717 756Q737 756 746 765Q755 774 760 788L817 952L866 952L866 483L817 483L760 645Q755 661 746 670.50Q737 680 717 680L401 680L401 76L969 76Q987 76 996 85.50Q1005 95 1010 111L1077 352L1133 352L1133 0L47 0L47 47Z"  horiz-adv-x="1188" vert-adv-y="2250"  />

      
      <glyph glyph-name="uni46" unicode="&#x46;" d="M47 47L174 74Q194 79 207.50 95Q221 111 221 133L221 1245Q221 1268 207.50 1284Q194 1300 174 1305L47 1331L47 1378L1053 1378L1053 1057L999 1057L928 1268Q923 1283 914 1293Q905 1303 887 1303L401 1303L401 741L727 741Q747 741 756 750.50Q765 760 770 774L827 944L874 944L874 463L827 463L770 631Q765 646 756 656Q747 666 727 666L401 666L401 133Q401 110 415 95Q429 80 449 74L592 47L592 0L47 0L47 47Z"  horiz-adv-x="1077" vert-adv-y="2250"  />

      
      <glyph glyph-name="uni47" unicode="&#x47;" d="M1024 471Q1024 493 1010.50 509.50Q997 526 977 530L838 557L838 604L1372 604L1372 557L1245 530Q1225 525 1211.50 509Q1198 493 1198 471L1198 317Q1198 236 1198 173Q1198 110 1200 72Q1152 51 1092.50 32.50Q1033 14 967.50-0.50Q902-15 833-23Q764-31 696-31Q567-31 452 17.50Q337 66 250.50 158.50Q164 251 113.50 384Q63 517 63 686Q63 846 113 979Q163 1112 251.50 1207Q340 1302 460 1354.50Q580 1407 721 1407Q804 1407 872.50 1400Q941 1393 998 1382Q1055 1371 1102.50 1357Q1150 1343 1190 1329L1190 1010L1135 1010L1074 1189Q1068 1206 1056.50 1215Q1045 1224 1031 1232Q999 1251 956 1267Q913 1283 865 1294.50Q817 1306 765.50 1312.50Q714 1319 665 1319Q579 1319 505 1281.50Q431 1244 377 1168.50Q323 1093 292.50 980Q262 867 262 717Q262 573 291 452Q320 331 376.50 242.50Q433 154 515 104.50Q597 55 703 55Q751 55 801 64.50Q851 74 894.50 87.50Q938 101 972.50 115.50Q1007 130 1024 139L1024 471Z"  horiz-adv-x="1389" vert-adv-y="2250"  />

      
      <glyph glyph-name="uni48" unicode="&#x48;" d="M47 47L174 74Q194 79 207.50 95Q221 111 221 133L221 1245Q221 1268 207.50 1284Q194 1300 174 1305L47 1331L47 1378L575 1378L575 1331L449 1305Q429 1300 415 1283.50Q401 1267 401 1245L401 756L1071 756L1071 1245Q1071 1268 1057.50 1283Q1044 1298 1024 1305L897 1331L897 1378L1425 1378L1425 1331L1298 1305Q1278 1301 1264.50 1284Q1251 1267 1251 1245L1251 133Q1251 110 1264.50 94.50Q1278 79 1298 74L1425 47L1425 0L897 0L897 47L1024 74Q1044 79 1057.50 95Q1071 111 1071 133L1071 678L401 678L401 133Q401 110 414.50 94.50Q428 79 449 74L575 47L575 0L47 0L47 47Z"  horiz-adv-x="1473" vert-adv-y="2250"  />

      
      <glyph glyph-name="uni49" unicode="&#x49;" d="M47 47L174 74Q194 79 207.50 95Q221 111 221 133L221 1245Q221 1268 207.50 1284Q194 1300 174 1305L47 1331L47 1378L575 1378L575 1331L449 1305Q429 1300 415 1283.50Q401 1267 401 1245L401 133Q401 110 414.50 94.50Q428 79 449 74L575 47L575 0L47 0L47 47Z"  horiz-adv-x="623" vert-adv-y="2250"  />

      
      <glyph glyph-name="uni4a" unicode="&#x4a;" d="M-149-170L-130-170Q-106-185-78.50-200Q-51-215-22.50-226.50Q6-238 36-245.50Q66-253 96-253Q143-253 167.50-237.50Q192-222 203-193Q212-168 217.50-129.50Q223-91 226-42Q229 7 230 66.50Q231 126 231 195L231 1245Q231 1268 217.50 1284.50Q204 1301 184 1305L45 1331L45 1378L586 1378L586 1331L459 1305Q439 1300 425.50 1283.50Q412 1267 412 1245L412 140Q412 20 377.50-76.50Q343-173 285-240.50Q227-308 150-344.50Q73-381-11-381Q-28-381-49.50-378Q-71-375-94.50-369Q-118-363-141.50-355Q-165-347-184-338L-149-170Z"  horiz-adv-x="614" vert-adv-y="2250"  />

      
      <glyph glyph-name="uni4b" unicode="&#x4b;" d="M47 47L174 74Q194 79 207.50 95Q221 111 221 133L221 1245Q221 1268 207.50 1284Q194 1300 174 1305L47 1331L47 1378L575 1378L575 1331L449 1305Q429 1300 415 1283.50Q401 1267 401 1245L401 668L981 1303L838 1331L838 1378L1245 1378L1245 1331L1143 1303Q1120 1296 1091 1276Q1062 1256 1040 1233L637 805L1124 152Q1134 139 1146 125.50Q1158 112 1170 101Q1182 90 1194 81.50Q1206 73 1217 70L1309 47L1309 0L811 0L811 47L963 76L516 680L401 567L401 133Q401 110 414.50 94.50Q428 79 449 74L575 47L575 0L47 0L47 47Z"  horiz-adv-x="1284" vert-adv-y="2250"  />

      
      <glyph glyph-name="uni4c" unicode="&#x4c;" d="M47 47L174 74Q194 79 207.50 95Q221 111 221 133L221 1245Q221 1268 207.50 1284Q194 1300 174 1305L47 1331L47 1378L582 1378L582 1331L449 1305Q429 1301 415 1284Q401 1267 401 1245L401 76L907 76Q917 76 924.50 81.50Q932 87 937 95.50Q942 104 945 113Q948 122 950 129L1026 393L1079 393L1079 0L47 0L47 47Z"  horiz-adv-x="1087" vert-adv-y="2250"  />

      
      <glyph glyph-name="uni4d" unicode="&#x4d;" d="M47 47L174 80Q194 85 207.50 101.50Q221 118 221 139L221 1245Q221 1268 207.50 1284Q194 1300 174 1305L47 1331L47 1378L457 1378L778 489L848 285L848 285L1243 1378L1649 1378L1649 1331L1522 1305Q1502 1300 1488.50 1283.50Q1475 1267 1475 1245L1475 133Q1475 110 1488.50 94.50Q1502 79 1522 74L1649 47L1649 0L1120 0L1120 47L1247 74Q1267 79 1280.50 95Q1294 111 1294 133L1294 1282L1294 1282L1241 1130L915 229L811 0L770 0L362 1128L307 1284L307 1284L307 139Q307 116 320.50 100.50Q334 85 354 80L481 47L481 0L47 0L47 47Z"  horiz-adv-x="1696" vert-adv-y="2250"  />

      
      <glyph glyph-name="uni4e" unicode="&#x4e;" d="M47 47L174 80Q194 85 207.50 101.50Q221 118 221 139L221 1241Q221 1264 207.50 1279.50Q194 1295 174 1300L37 1331L37 1378L373 1378L1034 428L1128 291L1128 291L1128 1239Q1128 1262 1114.50 1277.50Q1101 1293 1081 1298L954 1331L954 1378L1389 1378L1389 1331L1262 1298Q1242 1293 1228 1277Q1214 1261 1214 1239L1214 229L1184-10L1128-10L412 1018L307 1171L307 1171L307 139Q307 116 320.50 100.50Q334 85 354 80L481 47L481 0L47 0L47 47Z"  horiz-adv-x="1415" vert-adv-y="2250"  />

      
      <glyph glyph-name="uni4f" unicode="&#x4f;" d="M698-31Q545-31 427 22.50Q309 76 228 171.50Q147 267 105 399.50Q63 532 63 690Q63 840 106.50 971Q150 1102 232 1199.50Q314 1297 432 1353Q550 1409 700 1409Q862 1409 981.50 1351.50Q1101 1294 1179.50 1196Q1258 1098 1296.50 967.50Q1335 837 1335 690Q1335 603 1319 516Q1303 429 1269.50 349Q1236 269 1184.50 199.50Q1133 130 1062 79Q991 28 900.50-1.50Q810-31 698-31M717 41Q822 41 900.50 88.50Q979 136 1031.50 219Q1084 302 1110.50 414.50Q1137 527 1137 657Q1137 807 1109.50 932Q1082 1057 1025.50 1147Q969 1237 883 1287Q797 1337 680 1337Q569 1337 489.50 1286Q410 1235 359.50 1150.50Q309 1066 285.50 955.50Q262 845 262 725Q262 578 289 453Q316 328 372 236.50Q428 145 513.50 93Q599 41 717 41Z"  horiz-adv-x="1399" vert-adv-y="2250"  />

      
      <glyph glyph-name="uni50" unicode="&#x50;" d="M47 47L174 74Q194 79 207.50 95Q221 111 221 133L221 1245Q221 1268 207.50 1284Q194 1300 174 1305L47 1331L47 1378L553 1378Q655 1378 745.50 1357.50Q836 1337 904 1293Q972 1249 1011.50 1180Q1051 1111 1051 1014Q1051 911 1016 828.50Q981 746 920 688.50Q859 631 776 600Q693 569 596 569Q573 569 548 574.50Q523 580 497.50 589.50Q472 599 447 611.50Q422 624 401 637L401 133Q401 110 415 94Q429 78 449 74L592 47L592 0L47 0L47 47M401 670Q417 666 438 663Q459 660 482 657.50Q505 655 529 654Q553 653 575 653Q635 653 679 670.50Q723 688 754.50 716Q786 744 805.50 778.50Q825 813 836.50 848Q848 883 852 914.50Q856 946 856 967Q856 1034 840.50 1095Q825 1156 786.50 1202.50Q748 1249 683 1277Q618 1305 520 1305L401 1305L401 670Z"  horiz-adv-x="1104" vert-adv-y="2250"  />

      
      <glyph glyph-name="uni51" unicode="&#x51;" d="M703-31Q701-31 700.50-31Q700-31 698-31Q545-31 427 22.50Q309 76 228 171.50Q147 267 105 399.50Q63 532 63 690Q63 840 106.50 971Q150 1102 232 1199.50Q314 1297 432 1353Q550 1409 700 1409Q862 1409 981.50 1351.50Q1101 1294 1179.50 1196Q1258 1098 1296.50 967.50Q1335 837 1335 690Q1335 582 1309.50 473Q1284 364 1230.50 270Q1177 176 1094.50 104Q1012 32 897-3L1087-256Q1097-269 1109.50-282.50Q1122-296 1135.50-307Q1149-318 1163-326.50Q1177-335 1190-338L1320-363L1320-410L1097-410Q1052-410 1022-403Q992-396 969-381Q946-366 927-342.50Q908-319 884-285L703-31M717 41Q822 41 900.50 88.50Q979 136 1031.50 219Q1084 302 1110.50 414.50Q1137 527 1137 657Q1137 807 1109.50 932Q1082 1057 1025.50 1147Q969 1237 883 1287Q797 1337 680 1337Q569 1337 489.50 1286Q410 1235 359.50 1150.50Q309 1066 285.50 955.50Q262 845 262 725Q262 578 289 453Q316 328 372 236.50Q428 145 513.50 93Q599 41 717 41Z"  horiz-adv-x="1405" vert-adv-y="2250"  />

      
      <glyph glyph-name="uni52" unicode="&#x52;" d="M47 47L174 74Q194 79 207.50 95Q221 111 221 133L221 1245Q221 1268 207.50 1284Q194 1300 174 1305L47 1331L47 1378L553 1378Q655 1378 732 1364Q809 1350 864.50 1325.50Q920 1301 956.50 1268.50Q993 1236 1014.50 1198Q1036 1160 1044.50 1118.50Q1053 1077 1053 1036Q1053 951 1022.50 885Q992 819 945.50 772Q899 725 844 695.50Q789 666 741 654L1120 154Q1129 142 1142 128.50Q1155 115 1169 103.50Q1183 92 1197.50 83.50Q1212 75 1225 72L1337 47L1337 0L1126 0Q1081 0 1051.50 7Q1022 14 1000 29.50Q978 45 959.50 68.50Q941 92 917 125L563 614L401 645L401 133Q401 110 412.50 95Q424 80 444 74L592 47L592 0L47 0L47 47M401 707Q412 704 432 702Q452 700 475 698.50Q498 697 519.50 696.50Q541 696 555 696Q633 696 690.50 721.50Q748 747 786 789Q824 831 843 886Q862 941 862 1001Q862 1081 840 1138.50Q818 1196 776.50 1233Q735 1270 674 1287.50Q613 1305 535 1305L401 1305L401 707Z"  horiz-adv-x="1266" vert-adv-y="2250"  />

      
      <glyph glyph-name="uni53" unicode="&#x53;" d="M74 412L127 412L206 213Q211 201 225.50 185Q240 169 251 162Q287 139 329 120Q371 101 413 87.50Q455 74 493 66.50Q531 59 560 59Q623 59 674.50 77Q726 95 762.50 129.50Q799 164 818.50 214.50Q838 265 838 330Q838 422 788 480.50Q738 539 653 575Q615 591 578 601.50Q541 612 503.50 622Q466 632 428.50 642.50Q391 653 354 668Q242 713 180.50 797Q119 881 119 1001Q119 1086 152 1160.50Q185 1235 243.50 1290.50Q302 1346 382 1377.50Q462 1409 555 1409Q606 1409 656 1403.50Q706 1398 754 1389Q802 1380 847 1367.50Q892 1355 934 1341L934 1016L881 1016L812 1201Q807 1216 793.50 1228Q780 1240 769 1248Q745 1266 713 1279Q681 1292 647.50 1301Q614 1310 582 1314.50Q550 1319 527 1319Q468 1319 421.50 1302.50Q375 1286 343 1257Q311 1228 293.50 1187Q276 1146 276 1098Q276 1056 284 1016Q292 976 313 941Q334 906 370.50 876.50Q407 847 463 827Q499 814 534.50 804Q570 794 606 784Q642 774 679.50 762Q717 750 758 733Q804 714 848.50 687.50Q893 661 928 622Q963 583 984.50 529Q1006 475 1006 401Q1006 322 977.50 244.50Q949 167 887.50 106Q826 45 730 7Q634-31 500-31Q456-31 407.50-23.50Q359-16 307.50-4Q256 8 203 24Q150 40 98 57L74 412Z"  horiz-adv-x="1079" vert-adv-y="2250"  />

      
      <glyph glyph-name="uni54" unicode="&#x54;" d="M328 47L475 74Q495 78 508.50 94.50Q522 111 522 133L522 1303L203 1303Q183 1303 174 1293Q165 1283 160 1268L88 1047L35 1047L35 1378L1192 1378L1192 1047L1139 1047L1067 1268Q1062 1283 1053.50 1293Q1045 1303 1026 1303L702 1303L702 133Q702 110 716 94Q730 78 750 74L897 47L897 0L328 0L328 47Z"  horiz-adv-x="1227" vert-adv-y="2250"  />

      
      <glyph glyph-name="uni55" unicode="&#x55;" d="M193 1245Q193 1268 179 1284Q165 1300 145 1305L18 1331L18 1378L547 1378L547 1331L420 1305Q400 1300 386.50 1283.50Q373 1267 373 1245L373 428Q373 393 378.50 352.50Q384 312 398.50 272.50Q413 233 438 196.50Q463 160 502.50 131.50Q542 103 598 86.50Q654 70 729 70Q805 70 862.50 87Q920 104 962 132.50Q1004 161 1032 197.50Q1060 234 1077 273.50Q1094 313 1101 352.50Q1108 392 1108 426L1108 1239Q1108 1262 1094.50 1277.50Q1081 1293 1061 1298L934 1331L934 1378L1368 1378L1368 1331L1241 1298Q1221 1293 1207.50 1277Q1194 1261 1194 1239L1194 414Q1194 333 1171 269Q1148 205 1109 155.50Q1070 106 1019 70.50Q968 35 912.50 12.50Q857-10 801-20.50Q745-31 696-31Q572-31 478 2.50Q384 36 320.50 92.50Q257 149 225 222Q193 295 193 373L193 1245Z"  horiz-adv-x="1386" vert-adv-y="2250"  />

      
      <glyph glyph-name="uni56" unicode="&#x56;" d="M98 1247Q90 1266 75 1284Q60 1302 39 1307L-53 1331L-53 1378L438 1378L438 1331L266 1298L627 369L678 231L678 231L1071 1294L901 1331L901 1378L1290 1378L1290 1331L1204 1307Q1184 1302 1168.50 1284Q1153 1266 1145 1247L745 207L631-20L592-20L98 1247Z"  horiz-adv-x="1243" vert-adv-y="2250"  />

      
      <glyph glyph-name="uni57" unicode="&#x57;" d="M100 1249Q94 1269 77.50 1285Q61 1301 41 1307L-39 1331L-39 1378L438 1378L438 1331L266 1298L522 447L578 262L578 262L848 1131L952 1378L1013 1378L1293 461L1356 254L1356 254L1683 1294L1513 1331L1513 1378L1901 1378L1901 1331L1821 1307Q1801 1301 1784.50 1283Q1768 1265 1761 1245L1432 233L1329-14L1264-14L962 962L923 1095L923 1095L653 233L549-14L481-14L100 1249Z"  horiz-adv-x="1862" vert-adv-y="2250"  />

      
      <glyph glyph-name="uni58" unicode="&#x58;" d="M8 47L82 70Q105 78 127.50 99Q150 120 164 139L541 672L172 1247Q166 1256 158 1265.50Q150 1275 141 1283.50Q132 1292 123 1298.50Q114 1305 106 1307L20 1331L20 1378L518 1378L518 1331L346 1298L596 903L666 788L666 788L999 1294L836 1331L836 1378L1225 1378L1225 1331L1151 1309Q1129 1302 1106 1280Q1083 1258 1069 1239L711 725L1090 131Q1101 114 1120.50 95.50Q1140 77 1155 72L1241 47L1241 0L743 0L743 47L915 80L655 492L586 608L586 608L236 84L397 47L397 0L8 0L8 47Z"  horiz-adv-x="1243" vert-adv-y="2250"  />

      
      <glyph glyph-name="uni59" unicode="&#x59;" d="M322 47L469 74Q489 78 502.50 94.50Q516 111 516 133L516 557L133 1247Q122 1266 107 1284Q92 1302 72 1307L-20 1331L-20 1378L471 1378L471 1331L299 1298L594 772L662 651L662 651L1016 1294L852 1331L852 1378L1233 1378L1233 1331L1147 1307Q1127 1301 1111.50 1283.50Q1096 1266 1085 1247L696 565L696 133Q696 110 709.50 94Q723 78 743 74L891 47L891 0L322 0L322 47Z"  horiz-adv-x="1200" vert-adv-y="2250"  />

      
      <glyph glyph-name="uni5a" unicode="&#x5a;" d="M8 47L786 1208L854 1303L854 1303L252 1303Q232 1303 223 1293Q214 1283 209 1268L137 1047L84 1047L84 1378L1071 1378L1071 1337L289 170L223 76L223 76L915 76Q934 76 942.50 85.50Q951 95 956 111L1028 352L1083 352L1083 0L8 0L8 47Z"  horiz-adv-x="1120" vert-adv-y="2250"  />

      
      <glyph glyph-name="uni5b" unicode="&#x5b;" d="M236 1479L761 1479L761 1409L391 1409L391-268L761-268L761-340L236-340L236 1479Z"  horiz-adv-x="824" vert-adv-y="2250"  />

      
      <glyph glyph-name="uni5c" unicode="&#x5c;" d="M103 1491L218 1491L889-414L781-414L103 1491Z"  horiz-adv-x="891" vert-adv-y="2250"  />

      
      <glyph glyph-name="uni5d" unicode="&#x5d;" d="M63-268L443-268L443 1409L63 1409L63 1479L598 1479L598-340L63-340L63-268Z"  horiz-adv-x="824" vert-adv-y="2250"  />

      
      <glyph glyph-name="uni5e" unicode="&#x5e;" d="M638 1399L719 1399L1124 757L993 757L680 1266L362 757L231 757L638 1399Z"  horiz-adv-x="1354" vert-adv-y="2250"  />

      
      <glyph glyph-name="uni5f" unicode="&#x5f;" d="M-4-177L1046-177L1046-246L-4-246L-4-177Z"  horiz-adv-x="1042" vert-adv-y="2250"  />

      
      <glyph glyph-name="uni60" unicode="&#x60;" d="M653 1074Q594 1120 552 1155Q510 1190 479 1217Q448 1244 425 1265Q402 1286 381 1304Q364 1319 352 1330.50Q340 1342 332 1353.50Q324 1365 320.50 1378Q317 1391 317 1409Q317 1422 322.50 1434.50Q328 1447 337 1456.50Q346 1466 359 1471.50Q372 1477 387 1477Q404 1477 418.50 1473.50Q433 1470 446.50 1461Q460 1452 474 1436.50Q488 1421 504 1397Q521 1372 539 1343Q557 1314 578.50 1279Q600 1244 627.50 1200.50Q655 1157 691 1103L653 1074Z"  horiz-adv-x="1024" vert-adv-y="2250"  />

      
      <glyph glyph-name="uni61" unicode="&#x61;" d="M632 143Q597 90 555.50 58Q514 26 471.50 8.50Q429-9 387.50-14.50Q346-20 311-20Q254-20 207.50 1Q161 22 127.50 57Q94 92 75.50 139Q57 186 57 238Q57 299 78.50 347Q100 395 136.50 431.50Q173 468 220 493.50Q267 519 317 535Q367 551 417 558.50Q467 566 510 566Q519 566 536 564.50Q553 563 571.50 561.50Q590 560 607.50 559Q625 558 635 558L636 738Q636 786 627.50 818Q619 850 601.50 868.50Q584 887 557 894.50Q530 902 492 902Q443 902 396.50 885.50Q350 869 309 845Q268 821 233 794.50Q198 768 173 749L151 749L120 907Q149 923 184.50 939.50Q220 956 261 968.50Q302 981 348.50 989Q395 997 446 997Q507 997 571 980.50Q635 964 687 927Q739 890 771.50 829Q804 768 803 680L797 156Q797 141 802 129.50Q807 118 817.50 109.50Q828 101 843.50 96.50Q859 92 880 92Q885 92 896 94Q907 96 920.50 98.50Q934 101 947.50 104.50Q961 108 971 111L981 111L981 63Q967 52 944.50 37.50Q922 23 895.50 10.50Q869-2 840.50-11Q812-20 786-20Q748-20 719-12Q690-4 670.50 14.50Q651 33 641.50 64.50Q632 96 632 143L632 143M635 507Q544 507 470.50 494Q397 481 345.50 453Q294 425 266 381Q238 337 238 276Q238 224 253.50 188.50Q269 153 293.50 131Q318 109 348.50 99.50Q379 90 408 90Q436 90 467.50 96Q499 102 529 114.50Q559 127 586 147Q613 167 632 195L635 507Z"  horiz-adv-x="964" vert-adv-y="2250"  />

      
      <glyph glyph-name="uni62" unicode="&#x62;" d="M154 1300Q154 1326 140 1344Q126 1362 92 1374L0 1407L0 1434L322 1511L322 879L322 829Q362 887 406 921Q450 955 491.50 971.50Q533 988 569.50 992.50Q606 997 631 997Q721 997 791.50 962Q862 927 911 864Q960 801 986 713.50Q1012 626 1012 522Q1012 407 980 307Q948 207 886.50 132.50Q825 58 736.50 15.50Q648-27 535-27Q493-27 447-23.50Q401-20 353-10Q305 0 255 17.50Q205 35 154 63L154 1300M322 129Q335 115 359 99.50Q383 84 411.50 70.50Q440 57 469 48.50Q498 40 522 40Q603 40 662.50 74.50Q722 109 760.50 166.50Q799 224 817.50 298Q836 372 836 451Q836 545 818.50 624.50Q801 704 764.50 762Q728 820 671.50 852.50Q615 885 537 885Q514 885 485.50 880Q457 875 427.50 863Q398 851 370.50 830Q343 809 322 778L322 129Z"  horiz-adv-x="1065" vert-adv-y="2250"  />

      
      <glyph glyph-name="uni63" unicode="&#x63;" d="M840 211L840 140Q811 111 772 81.50Q733 52 686.50 28.50Q640 5 586-10Q532-25 473-25Q376-25 298.50 14Q221 53 166.50 119Q112 185 82.50 271.50Q53 358 53 454Q53 525 68 592.50Q83 660 113 720.50Q143 781 187 831Q231 881 288.50 917.50Q346 954 417 974.50Q488 995 572 995Q630 995 671 986Q712 977 740.50 965Q769 953 788.50 940.50Q808 928 825 920L794 762L771 762Q735 787 699.50 812Q664 837 626.50 856.50Q589 876 547 888.50Q505 901 456 901Q437 901 418 896Q399 891 381 882Q363 873 348 861Q333 849 321 836Q306 819 290 790Q274 761 260.50 721Q247 681 238 631.50Q229 582 229 524Q229 423 250.50 343.50Q272 264 315 208.50Q358 153 422 123.50Q486 94 571 94Q613 94 651.50 106.50Q690 119 724 137Q758 155 784.50 175Q811 195 829 211L840 211Z"  horiz-adv-x="854" vert-adv-y="2250"  />

      
      <glyph glyph-name="uni64" unicode="&#x64;" d="M750 145L750 145Q707 87 662 54Q617 21 574.50 4.50Q532-12 495.50-16Q459-20 434-20Q344-20 273.50 15.50Q203 51 154 114Q105 177 79 263Q53 349 53 451Q53 564 84 663.50Q115 763 173.50 837Q232 911 317 954Q402 997 510 997Q553 997 588 989Q623 981 651.50 967.50Q680 954 702.50 936.50Q725 919 743 901L743 944L743 1300Q743 1326 730 1344.50Q717 1363 682 1374L578 1407L578 1434L911 1511L911 186Q911 160 924.50 142Q938 124 973 113L1065 84L1065 57L770-20L750-20L750 145M743 852Q726 867 698 879Q670 891 639.50 899Q609 907 580 911Q551 915 532 915Q455 915 398.50 883Q342 851 304 797Q266 743 247.50 672.50Q229 602 229 524Q229 430 246.50 351Q264 272 300.50 215Q337 158 393.50 126Q450 94 528 94Q550 94 580 99Q610 104 640 115.50Q670 127 697.50 146.50Q725 166 743 195L743 852Z"  horiz-adv-x="1085" vert-adv-y="2250"  />

      
      <glyph glyph-name="uni65" unicode="&#x65;" d="M869 209L869 137Q839 108 799 79Q759 50 710.50 27Q662 4 607-10.50Q552-25 492-25Q394-25 313.50 8Q233 41 175 105.50Q117 170 85 264Q53 358 53 481Q53 583 83.50 676.50Q114 770 172 841Q230 912 313.50 954.50Q397 997 502 997Q591 997 660 964Q729 931 776 878Q823 825 847 756.50Q871 688 871 618Q871 609 870.50 599Q870 589 869.50 579Q869 569 867.50 560Q866 551 865 543L229 543Q230 325 311.50 207.50Q393 90 557 90Q613 90 660 102.50Q707 115 744.50 133Q782 151 810.50 171.50Q839 192 859 209L869 209M693 609Q693 672 682.50 730.50Q672 789 648 834Q624 879 585.50 905.50Q547 932 492 932Q437 932 393.50 909Q350 886 317.50 844Q285 802 264 742Q243 682 234 609L693 609Z"  horiz-adv-x="924" vert-adv-y="2250"  />

      
      <glyph glyph-name="uni66" unicode="&#x66;" d="M41 45L152 70Q172 75 184.50 90Q197 105 197 127L197 883L25 883L43 963L198 963Q198 1107 227 1213Q256 1319 308.50 1388.50Q361 1458 434 1492.50Q507 1527 594 1527Q610 1527 630 1524.50Q650 1522 671 1516.50Q692 1511 713 1503.50Q734 1496 752 1486L721 1335L702 1335Q678 1350 655 1364Q632 1378 607.50 1388.50Q583 1399 554.50 1405.50Q526 1412 491 1412Q445 1412 421 1397Q397 1382 386 1353Q377 1328 372 1289Q367 1250 365 1199.50Q363 1149 362.50 1089Q362 1029 362 963L631 963L608 883L365 883L365 127Q365 104 377.50 89Q390 74 410 70L539 45L539 0L41 0L41 45Z"  horiz-adv-x="623" vert-adv-y="2250"  />

      
      <glyph glyph-name="uni67" unicode="&#x67;" d="M256 15Q231 21 202.50 35Q174 49 149.50 71.50Q125 94 108.50 125.50Q92 157 92 199Q92 244 110.50 275.50Q129 307 156.50 328.50Q184 350 216.50 363Q249 376 276 383L276 383Q238 404 207 430.50Q176 457 153.50 492Q131 527 118.50 572Q106 617 106 674Q106 737 134.50 795.50Q163 854 213.50 898.50Q264 943 334 970Q404 997 487 997Q526 997 573.50 989Q621 981 663 969L1010 969L987 850L704 918L704 918Q736 891 759.50 860Q783 829 798.50 797Q814 765 821.50 732.50Q829 700 829 670Q829 599 805 539.50Q781 480 735 436.50Q689 393 621.50 368.50Q554 344 467 344Q451 344 433.50 344.50Q416 345 399 346.50Q382 348 365.50 351Q349 354 334 358Q316 358 297.50 350.50Q279 343 264 330Q249 317 240 299.50Q231 282 231 262Q231 238 238.50 219Q246 200 259 187Q272 174 289.50 167Q307 160 326 160L641 160Q734 160 796.50 136.50Q859 113 897 75.50Q935 38 951-8Q967-54 967-98Q967-180 927-248.50Q887-317 818-366.50Q749-416 656-443.50Q563-471 457-471Q365-471 289-455Q213-439 157.50-407.50Q102-376 71.50-330Q41-284 41-223Q41-170 59-131Q77-92 107-63.50Q137-35 175.50-16.50Q214 2 256 15L256 15M479 401Q525 401 558.50 423.50Q592 446 613.50 484.50Q635 523 645 573Q655 623 655 678Q655 735 642 782.50Q629 830 605.50 864.50Q582 899 548.50 918.50Q515 938 473 938Q423 938 388 917Q353 896 330.50 860Q308 824 297.50 776.50Q287 729 287 676Q287 618 300 568Q313 518 337.50 481Q362 444 398 422.50Q434 401 479 401M317 13Q299 8 279.50-5.50Q260-19 244-42Q228-65 217.50-98.50Q207-132 207-176Q207-219 221-252Q235-285 258.50-309.50Q282-334 312.50-350.50Q343-367 375.50-377.50Q408-388 440.50-392.50Q473-397 500-397Q559-397 617-383.50Q675-370 721.50-341Q768-312 796.50-267Q825-222 825-160Q825-130 814-99Q803-68 780-43.50Q757-19 720-3Q683 13 631 13L317 13Z"  horiz-adv-x="1020" vert-adv-y="2250"  />

      
      <glyph glyph-name="uni68" unicode="&#x68;" d="M23 45L131 70Q152 75 164 89.50Q176 104 176 126L176 1300Q176 1326 162.50 1344Q149 1362 115 1374L23 1407L23 1434L344 1511L344 879L344 827Q386 883 425.50 916.50Q465 950 503 968Q541 986 578 991.50Q615 997 653 997Q717 997 774 977.50Q831 958 873.50 916.50Q916 875 940.50 809.50Q965 744 965 653L965 131Q965 106 978 90.50Q991 75 1010 70L1106 45L1106 0L643 0L643 45L754 70Q772 74 784.50 90Q797 106 797 131L797 590Q797 657 789 711.50Q781 766 757.50 804.50Q734 843 691.50 864Q649 885 580 885Q550 885 517.50 879Q485 873 454 860.50Q423 848 394.50 828Q366 808 344 780L344 127Q344 104 356.50 89.50Q369 75 389 70L485 45L485 0L23 0L23 45Z"  horiz-adv-x="1128" vert-adv-y="2250"  />

      
      <glyph glyph-name="uni69" unicode="&#x69;" d="M270 1225Q245 1225 223 1234.50Q201 1244 185 1260Q169 1276 159.50 1298Q150 1320 150 1346Q150 1371 159.50 1393Q169 1415 185 1431Q201 1447 223 1456.50Q245 1466 270 1466Q295 1466 317.50 1456.50Q340 1447 357 1431Q374 1415 383.50 1393Q393 1371 393 1346Q393 1320 383.50 1298Q374 1276 357 1260Q340 1244 317.50 1234.50Q295 1225 270 1225M39 45L152 70Q172 75 184.50 90Q197 105 197 127L197 786Q197 812 183 830Q169 848 135 860L43 893L43 920L365 989L365 127Q365 104 377.50 89.50Q390 75 410 70L514 45L514 0L39 0L39 45Z"  horiz-adv-x="537" vert-adv-y="2250"  />

      
      <glyph glyph-name="uni6a" unicode="&#x6a;" d="M266 1225Q241 1225 219 1234.50Q197 1244 180.50 1260Q164 1276 154.50 1298Q145 1320 145 1346Q145 1371 154.50 1393Q164 1415 180.50 1431Q197 1447 219 1456.50Q241 1466 266 1466Q291 1466 313.50 1456.50Q336 1447 353 1431Q370 1415 379.50 1393Q389 1371 389 1346Q389 1320 379.50 1298Q370 1276 353 1260Q336 1244 313.50 1234.50Q291 1225 266 1225M-169-260L-150-260Q-126-275-102.50-289Q-79-303-52.50-314Q-26-325 3.50-331.50Q33-338 68-338Q114-338 138-323Q162-308 173-279Q182-254 188-215Q194-176 197.50-126Q201-76 202-16Q203 44 203 111L203 786Q203 812 189 830.50Q175 849 141 860L41 893L41 920L371 989L371 91Q371-38 338.50-139Q306-240 250.50-310Q195-380 121-416.50Q47-453-35-453Q-51-453-72-450Q-93-447-115.50-442Q-138-437-160-429Q-182-421-200-411L-169-260Z"  horiz-adv-x="524" vert-adv-y="2250"  />

      
      <glyph glyph-name="uni6b" unicode="&#x6b;" d="M23 45L131 70Q151 75 163.50 90Q176 105 176 127L176 1300Q176 1326 162.50 1344Q149 1362 115 1374L23 1407L23 1434L344 1511L344 485L748 887L621 924L621 969L1004 969L1004 924L897 897Q869 890 849.50 873.50Q830 857 819 846L555 600L918 117Q931 100 947.50 87Q964 74 993 66L1071 45L1071 0L638 0L638 45L750 76L442 485L344 433L344 127Q344 104 356.50 89.50Q369 75 389 70L485 45L485 0L23 0L23 45Z"  horiz-adv-x="1034" vert-adv-y="2250"  />

      
      <glyph glyph-name="uni6c" unicode="&#x6c;" d="M25 45L133 70Q153 75 165.50 90Q178 105 178 127L178 1300Q178 1326 164.50 1344Q151 1362 117 1374L25 1407L25 1434L346 1511L346 127Q346 104 358.50 89.50Q371 75 391 70L487 45L487 0L25 0L25 45Z"  horiz-adv-x="520" vert-adv-y="2250"  />

      
      <glyph glyph-name="uni6d" unicode="&#x6d;" d="M45 43L154 68Q174 73 185.50 89Q197 105 197 127L197 786Q197 812 184 829Q171 846 137 858L45 891L45 918L360 989L360 827L360 827Q395 876 430.50 908.50Q466 941 503.50 960.50Q541 980 581 988.50Q621 997 666 997Q714 997 758 986.50Q802 976 839 953Q876 930 903.50 894.50Q931 859 946 809Q993 876 1036.50 913.50Q1080 951 1120.50 969.50Q1161 988 1199 992.50Q1237 997 1272 997Q1335 997 1390 977.50Q1445 958 1485.50 916.50Q1526 875 1549.50 809.50Q1573 744 1573 653L1573 125Q1573 103 1585.50 89Q1598 75 1618 70L1714 45L1714 0L1253 0L1253 43L1362 68Q1382 73 1393.50 89Q1405 105 1405 127L1405 590Q1405 657 1397.50 711.50Q1390 766 1368.50 804.50Q1347 843 1306.50 864Q1266 885 1200 885Q1172 885 1140.50 879Q1109 873 1078 860.50Q1047 848 1018.50 827.50Q990 807 969 778L969 125Q969 102 981.50 88.50Q994 75 1014 70L1110 45L1110 0L649 0L649 43L758 68Q778 73 789.50 88Q801 103 801 125L801 590Q801 657 793.50 711.50Q786 766 764 804.50Q742 843 701.50 864Q661 885 594 885Q565 885 533.50 879Q502 873 471.50 860.50Q441 848 413.50 828Q386 808 365 780L365 127Q363 104 376.50 89.50Q390 75 410 70L506 45L506 0L45 0L45 43Z"  horiz-adv-x="1737" vert-adv-y="2250"  />

      
      <glyph glyph-name="uni6e" unicode="&#x6e;" d="M43 45L152 70Q172 75 184.50 90Q197 105 197 127L197 786Q197 812 183 830Q169 848 135 860L43 893L43 920L360 989L360 827L360 827Q398 880 436.50 913.50Q475 947 514 965.50Q553 984 593 990.50Q633 997 674 997Q739 997 796 977.50Q853 958 895 916.50Q937 875 961 809.50Q985 744 985 653L985 131Q985 106 998.50 90.50Q1012 75 1030 70L1126 45L1126 0L664 0L664 45L774 70Q793 75 805 90.50Q817 106 817 131L817 590Q817 657 809.50 711.50Q802 766 778.50 804.50Q755 843 713 864Q671 885 602 885Q572 885 539.50 879Q507 873 475.50 860.50Q444 848 415.50 828Q387 808 365 780L365 127Q365 104 377.50 89.50Q390 75 410 70L506 45L506 0L43 0L43 45Z"  horiz-adv-x="1149" vert-adv-y="2250"  />

      
      <glyph glyph-name="uni6f" unicode="&#x6f;" d="M510-27Q405-27 320.50 9Q236 45 176.50 112Q117 179 85 273Q53 367 53 483Q53 590 85 683.50Q117 777 177 847Q237 917 323.50 957Q410 997 520 997Q638 997 724 954.50Q810 912 866 841.50Q922 771 949.50 678.50Q977 586 977 487Q977 381 945.50 287.50Q914 194 854 124Q794 54 707.50 13.50Q621-27 510-27M524 39Q604 39 656 80.50Q708 122 738.50 185.50Q769 249 781 324Q793 399 793 467Q793 550 777.50 633Q762 716 728 782.50Q694 849 639 890.50Q584 932 506 932Q453 932 413 913Q373 894 343 861.50Q313 829 293 786.50Q273 744 260.50 696.50Q248 649 243 600Q238 551 238 506Q238 456 243.50 402Q249 348 262.50 296.50Q276 245 297.50 198Q319 151 351 116Q383 81 425.50 60Q468 39 524 39Z"  horiz-adv-x="1030" vert-adv-y="2250"  />

      
      <glyph glyph-name="uni70" unicode="&#x70;" d="M29-426L139-401Q159-396 171.50-381Q184-366 184-344L184 786Q184 812 170.50 830Q157 848 123 860L31 893L31 920L346 989L346 829L346 829Q387 886 430 919.50Q473 953 514.50 970.50Q556 988 594 992.50Q632 997 662 997Q752 997 823 961.50Q894 926 942.50 863Q991 800 1016.50 714Q1042 628 1042 526Q1042 413 1011 314Q980 215 921.50 141Q863 67 778.50 24.50Q694-18 586-18Q544-18 509-10Q474-2 445.50 11.50Q417 25 393.50 42.50Q370 60 352 78L352 39L352-344Q352-367 364.50-382Q377-397 397-401L535-426L535-471L29-471L29-426M352 127Q369 112 397.50 100Q426 88 457 80Q488 72 517.50 67.50Q547 63 565 63Q643 63 699.50 95.50Q756 128 793 182Q830 236 848 307Q866 378 866 455Q866 547 849 625.50Q832 704 796 762Q760 820 703.50 852.50Q647 885 569 885Q546 885 517 880Q488 875 458.50 863Q429 851 401 830Q373 809 352 778L352 127Z"  horiz-adv-x="1096" vert-adv-y="2250"  />

      
      <glyph glyph-name="uni71" unicode="&#x71;" d="M557-426L698-401Q718-397 730.50-382Q743-367 743-344L743 94L743 143Q702 84 658 51.50Q614 19 573 3.50Q532-12 495.50-15Q459-18 434-18Q344-18 273.50 16.50Q203 51 154 113.50Q105 176 79 262Q53 348 53 451Q53 563 86 662.50Q119 762 181.50 836Q244 910 333.50 953.50Q423 997 536 997Q621 997 714.50 980.50Q808 964 911 911L911-344Q911-366 923.50-381Q936-396 956-401L1067-426L1067-471L557-471L557-426M743 846Q726 861 699.50 874Q673 887 644.50 896Q616 905 588.50 910Q561 915 542 915Q465 915 406.50 882.50Q348 850 308.50 796Q269 742 249 671Q229 600 229 522Q229 430 246.50 351.50Q264 273 300.50 216Q337 159 393.50 126.50Q450 94 528 94Q550 94 579.50 98.50Q609 103 639.50 114.50Q670 126 697.50 145Q725 164 743 193L743 846Z"  horiz-adv-x="1065" vert-adv-y="2250"  />

      
      <glyph glyph-name="uni72" unicode="&#x72;" d="M41 45L152 70Q172 75 184.50 90Q197 105 197 127L197 784Q197 810 183 829Q169 848 135 860L43 893L43 920L354 989L354 770L354 770Q378 809 407 849.50Q436 890 473 922.50Q510 955 554.50 976Q599 997 654 997Q682 997 702 994.50Q722 992 738 988Q754 984 768 978.50Q782 973 799 967L799 733L748 733L716 817Q712 827 699 834.50Q686 842 669.50 846.50Q653 851 634.50 853.50Q616 856 601 856Q565 856 533 847Q501 838 472 821Q443 804 416.50 778Q390 752 365 718L365 127Q365 104 377.50 89Q390 74 410 70L539 45L539 0L41 0L41 45Z"  horiz-adv-x="830" vert-adv-y="2250"  />

      
      <glyph glyph-name="uni73" unicode="&#x73;" d="M74 303L125 303L163 184Q171 159 194 142Q217 125 237 114Q254 105 278.50 95Q303 85 331 76Q359 67 388.50 61.50Q418 56 445 56Q482 56 517 64.50Q552 73 579 93Q606 113 622.50 145Q639 177 639 225Q639 265 624.50 292.50Q610 320 585 338.50Q560 357 527 369Q494 381 457 391Q406 405 358.50 418Q311 431 272 444Q231 457 197.50 481Q164 505 139.50 539Q115 573 101.50 615Q88 657 88 705Q88 770 116.50 824Q145 878 194 916.50Q243 955 307.50 976Q372 997 444 997Q486 997 521 994Q556 991 588.50 985.50Q621 980 652.50 972.50Q684 965 719 956L735 688L680 688L636 808Q628 830 610 846.50Q592 863 571 874Q537 891 494.50 904Q452 917 406 917Q374 917 343 909Q312 901 287 883Q262 865 246.50 835.50Q231 806 231 764Q231 722 243.50 693Q256 664 276.50 645Q297 626 322 614Q347 602 373 594Q394 587 418 580Q442 573 464.50 566.50Q487 560 506.50 554.50Q526 549 539 545Q590 530 634 509Q678 488 710.50 458Q743 428 761.50 387.50Q780 347 780 293Q780 209 749 148.50Q718 88 665.50 49Q613 10 542.50-8.50Q472-27 393-27Q342-27 298.50-21Q255-15 216.50-5Q178 5 143 16.50Q108 28 74 39L74 303Z"  horiz-adv-x="831" vert-adv-y="2250"  />

      
      <glyph glyph-name="uni74" unicode="&#x74;" d="M164 883L8 883L8 932Q47 942 78 950.50Q109 959 131.50 974Q154 989 167 1015Q180 1041 183 1086L190 1209L332 1239L332 963L674 963L645 883L332 883L332 200Q332 170 352 149.50Q372 129 400.50 115.50Q429 102 460.50 96Q492 90 516 90Q532 90 552 93.50Q572 97 591 101.50Q610 106 625.50 111.50Q641 117 649 121L659 121L659 68Q645 59 620.50 44.50Q596 30 563.50 16Q531 2 491.50-8Q452-18 408-18Q355-18 310.50-5Q266 8 233.50 32.50Q201 57 182.50 93.50Q164 130 164 178L164 883Z"  horiz-adv-x="659" vert-adv-y="2250"  />

      
      <glyph glyph-name="uni75" unicode="&#x75;" d="M164 786Q164 812 150 830Q136 848 102 860L10 893L10 920L332 989L332 387Q332 320 339 266Q346 212 368 173.50Q390 135 432 114.50Q474 94 543 94Q573 94 605.50 99.50Q638 105 669.50 117Q701 129 729.50 148.50Q758 168 780 197L780 786Q780 812 766.50 826Q753 840 719 852L625 885L625 912L948 989L948 186Q948 160 961.50 142Q975 124 1010 113L1102 84L1102 57L805-20L784-20L784 150L784 150Q746 96 708.50 62.50Q671 29 632 10.50Q593-8 553-14Q513-20 471-20Q406-20 349.50-0.50Q293 19 252 60.50Q211 102 187.50 167Q164 232 164 324L164 786Z"  horiz-adv-x="1120" vert-adv-y="2250"  />

      
      <glyph glyph-name="uni76" unicode="&#x76;" d="M109 854Q100 876 84.50 885.50Q69 895 41 903L-27 924L-27 969L420 969L420 924L276 893L504 344L555 219L555 219L811 887L670 924L670 969L1018 969L1018 924L950 897Q922 886 907 878Q892 870 883 848L621 201L512-10L473-10L109 854Z"  horiz-adv-x="993" vert-adv-y="2250"  />

      
      <glyph glyph-name="uni77" unicode="&#x77;" d="M119 852Q111 875 94 884.50Q77 894 49 903L-18 924L-18 969L426 969L426 924L283 893L470 346L511 215L511 215L699 737L796 969L855 969L1076 346L1117 217L1117 217L1351 887L1210 924L1210 969L1558 969L1558 924L1491 897Q1463 886 1447.50 877.50Q1432 869 1423 846L1184 201L1082-10L1031-10L798 648L775 746L775 746L581 201L476-10L425-10L119 852Z"  horiz-adv-x="1542" vert-adv-y="2250"  />

      
      <glyph glyph-name="uni78" unicode="&#x78;" d="M-3 45L75 70Q102 79 124 95.50Q146 112 155 123L425 463L157 850Q146 867 128 881Q110 895 81 903L7 924L7 969L457 969L457 924L326 893L483 653L536 569L536 569L766 889L639 924L639 969L991 969L991 924L913 899Q886 890 864 873.50Q842 857 833 846L575 518L854 119Q865 102 883 88Q901 74 930 66L1001 45L1001 0L552 0L552 45L685 76L517 328L464 412L464 412L222 80L349 45L349 0L-3 0L-3 45Z"  horiz-adv-x="998" vert-adv-y="2250"  />

      
      <glyph glyph-name="uni79" unicode="&#x79;" d="M43-275L69-275Q84-285 107.50-294.50Q131-304 156-312Q181-320 204.50-325Q228-330 242-330Q262-330 277.50-325.50Q293-321 313-307Q340-289 360-263.50Q380-238 398.50-202Q417-166 436-118Q455-70 479-8L410 131L109 854Q100 876 84.50 885.50Q69 895 41 903L-27 924L-27 969L420 969L420 924L276 893L504 334L555 209L555 209L795 887L653 924L653 969L1004 969L1004 924L934 897Q906 886 890 878.50Q874 871 866 848L497-184Q463-279 425.50-335.50Q388-392 347.50-422Q307-452 263.50-461.50Q220-471 174-471Q147-471 123-467Q99-463 79-456.50Q59-450 42-442.50Q25-435 13-428L43-275Z"  horiz-adv-x="971" vert-adv-y="2250"  />

      
      <glyph glyph-name="uni7a" unicode="&#x7a;" d="M43 41L559 807L625 899L625 899L274 899Q239 899 220.50 885Q202 871 195 852L135 688L84 688L84 969L838 969L838 942L313 162L248 70L248 70L651 70Q677 70 699.50 82.50Q722 95 729 117L788 301L840 301L840 0L43 0L43 41Z"  horiz-adv-x="883" vert-adv-y="2250"  />

      
      <glyph glyph-name="uni7b" unicode="&#x7b;" d="M378 286Q378 355 356.50 401Q335 447 295 476Q255 505 199 519.50Q143 534 74 539L74 601Q143 607 199.50 621Q256 635 295.50 663.50Q335 692 356.50 738Q378 784 378 854L378 1098Q378 1200 408.50 1272.50Q439 1345 496 1391Q553 1437 634 1458Q715 1479 817 1479L817 1421Q772 1418 722.50 1408Q673 1398 632 1372.50Q591 1347 564.50 1302.50Q538 1258 538 1186L538 962Q538 860 516.50 793.50Q495 727 456 685.50Q417 644 361 621.50Q305 599 236 585L236 555Q305 541 361 519Q417 497 456 455Q495 413 516.50 346.50Q538 280 538 178L538-45Q538-117 564.50-161.50Q591-206 632-231.50Q673-257 722.50-267.50Q772-278 817-281L817-340Q715-340 634-319.50Q553-299 496-253.50Q439-208 408.50-135Q378-62 378 43L378 286Z"  horiz-adv-x="880" vert-adv-y="2250"  />

      
      <glyph glyph-name="uni7c" unicode="&#x7c;" d="M393 1492L497 1492L497-414L393-414L393 1492Z"  horiz-adv-x="891" vert-adv-y="2250"  />

      
      <glyph glyph-name="uni7d" unicode="&#x7d;" d="M63-281Q108-278 157.50-267.50Q207-257 248-231.50Q289-206 315.50-161.50Q342-117 342-45L342 178Q342 280 363.50 346.50Q385 413 424 455Q463 497 519 519Q575 541 644 555L644 585Q575 599 519 621.50Q463 644 424 685.50Q385 727 363.50 793.50Q342 860 342 962L342 1186Q342 1258 315.50 1302.50Q289 1347 248 1372.50Q207 1398 157.50 1408Q108 1418 63 1421L63 1479Q165 1479 246 1458Q327 1437 384 1391Q441 1345 471.50 1272.50Q502 1200 502 1098L502 854Q502 784 523.50 738Q545 692 584.50 663.50Q624 635 680.50 621Q737 607 806 601L806 539Q737 534 681 519.50Q625 505 585 476Q545 447 523.50 401Q502 355 502 286L502 43Q502-62 471.50-135Q441-208 384-253.50Q327-299 246-319.50Q165-340 63-340L63-281Z"  horiz-adv-x="880" vert-adv-y="2250"  />

      
      <glyph glyph-name="uni7e" unicode="&#x7e;" d="M177 413Q193 453 222 500.50Q251 548 291.50 589Q332 630 383.50 658Q435 686 495 686Q567 686 623 664Q679 642 727.50 615.50Q776 589 821 567Q866 545 917 545Q952 545 979.50 558.50Q1007 572 1029.50 595.50Q1052 619 1072 651Q1092 683 1113 721L1179 695Q1162 654 1133 606.50Q1104 559 1063.50 518Q1023 477 972 449.50Q921 422 861 422Q813 422 772.50 432.50Q732 443 696 458.50Q660 474 628 492.50Q596 511 565 526.50Q534 542 502.50 552.50Q471 563 437 563Q402 563 374.50 549.50Q347 536 324.50 513Q302 490 282 457.50Q262 425 242 388L177 413Z"  horiz-adv-x="1354" vert-adv-y="2250"  />

      
      <glyph glyph-name="unia1" unicode="&#xa1;" d="M205 850Q205 875 215 897.50Q225 920 241.50 936.50Q258 953 280.50 963Q303 973 328 973Q353 973 376 963Q399 953 416 936.50Q433 920 443 897.50Q453 875 453 850Q453 824 443 802Q433 780 416 763Q399 746 376 736.50Q353 727 328 727Q303 727 280.50 736.50Q258 746 241.50 763Q225 780 215 802Q205 824 205 850M217-422L300 541L355 541L438-422L438-436L217-436L217-422Z"  horiz-adv-x="659" vert-adv-y="2250"  />

      
      <glyph glyph-name="unia2" unicode="&#xa2;" d="M614-1Q516 0 437 39.50Q358 79 302.50 145Q247 211 217 297Q187 383 187 478Q187 572 215 660.50Q243 749 297 820.50Q351 892 430.50 942Q510 992 614 1010L614 1260L678 1260L678 1017Q689 1019 700 1019Q711 1019 722 1019Q782 1019 824 1010Q866 1001 895.50 989Q925 977 945 964.50Q965 952 982 944L950 786L927 786Q897 807 868 827Q839 847 809 865Q779 883 746.50 897Q714 911 678 919L678 118Q689 117 699.50 116.50Q710 116 721 116Q764 116 803.50 128.50Q843 141 877.50 159.50Q912 178 939.50 198.50Q967 219 986 235L998 235L998 164Q972 138 937.50 112Q903 86 862.50 64Q822 42 775.50 25.50Q729 9 678 3L678-251L614-251L614-1M614 927Q611 927 608.50 927Q606 927 603 927Q583 927 563.50 921.50Q544 916 525.50 907Q507 898 491 886Q475 874 463 860Q448 843 430.50 814Q413 785 398 745Q383 705 373 655.50Q363 606 363 548Q363 378 425 269Q487 160 614 128L614 927Z"  horiz-adv-x="1150" vert-adv-y="2250"  />

      
      <glyph glyph-name="unia3" unicode="&#xa3;" d="M119 69Q171 94 201 132.50Q231 171 246 217Q261 263 265 314.50Q269 366 269 417L269 494L124 494L147 574L269 574L269 638Q269 739 297 815.50Q325 892 382 943.50Q439 995 526 1021Q613 1047 732 1047Q771 1047 808 1041.50Q845 1036 877 1027Q909 1018 937 1008Q965 998 986 989L946 811L921 811Q893 829 856 850Q819 871 774.50 888.50Q730 906 679 918Q628 930 573 930Q539 930 513.50 916.50Q488 903 469 875Q460 861 454 839Q448 817 445 793Q442 769 440.50 746Q439 723 439 707L439 574L810 574L787 494L439 494L439 452Q439 421 430.50 383.50Q422 346 403.50 305.50Q385 265 355.50 225Q326 185 283 150L283 150L419 152L848 152Q882 152 899 169.50Q916 187 922 207L959 330L1008 330L981 0L119 0L119 69Z"  horiz-adv-x="1162" vert-adv-y="2250"  />

      
      <glyph glyph-name="unia4" unicode="&#xa4;" d="M155 1249L317 1088Q436 1174 592 1174Q755 1174 869 1087L1032 1249L1115 1167L952 1004Q1041 882 1041 729Q1041 577 951 453L1115 290L1032 207L868 371Q743 285 592 285Q433 285 318 370L155 207L72 290L234 451Q145 570 145 729Q145 890 233 1005L72 1167L155 1249M269 729Q269 655 292.50 593Q316 531 359 486Q402 441 461 415.50Q520 390 592 390Q668 390 728.50 418Q789 446 831 493Q873 540 895 601Q917 662 917 729Q917 802 893 864.50Q869 927 826 972.50Q783 1018 723 1043.50Q663 1069 592 1069Q515 1069 455 1041Q395 1013 354 966Q313 919 291 857.50Q269 796 269 729L269 729Z"  horiz-adv-x="1186" vert-adv-y="2250"  />

      
      <glyph glyph-name="unia5" unicode="&#xa5;" d="M346 47L483 74Q503 78 516.50 94.50Q530 111 530 133L530 324L170 324L170 381L530 381L530 415L466 517L170 517L170 574L429 574L204 922Q194 936 178.50 949Q163 962 143 967L61 984L61 1033L534 1033L534 984L366 961L583 613L654 493L654 493L973 963L835 984L835 1033L1179 1033L1179 984L1103 967Q1083 962 1067.50 949Q1052 936 1041 922L803 574L1059 574L1059 517L758 517L695 429L695 381L1059 381L1059 324L696 324L696 133Q696 110 709.50 94Q723 78 743 74L881 47L881 0L346 0L346 47Z"  horiz-adv-x="1244" vert-adv-y="2250"  />

      
      <glyph glyph-name="unia6" unicode="&#xa6;" d="M393 1492L497 1492L497 692L393 692L393 1492M393 386L497 386L497-414L393-414L393 386Z"  horiz-adv-x="891" vert-adv-y="2250"  />

      
      <glyph glyph-name="unia7" unicode="&#xa7;" d="M253-99L275-98Q293-109 327.50-127.50Q362-146 409.50-163Q457-180 516-192.50Q575-205 642-205Q723-205 759-161Q795-117 795-29Q795 17 774 52Q753 87 715.50 116Q678 145 626 170.50Q574 196 513 223Q418 264 354.50 305Q291 346 252.50 387Q214 428 198 470.50Q182 513 182 557Q182 606 196.50 645Q211 684 237 724L397 835Q316 892 285 950Q254 1008 254 1068Q254 1117 272 1161Q290 1205 321 1241.50Q352 1278 392.50 1307.50Q433 1337 478.50 1357Q524 1377 571.50 1388Q619 1399 663 1399Q720 1399 768 1393Q816 1387 856 1377.50Q896 1368 927.50 1356.50Q959 1345 982 1335L950 1176L926 1175Q909 1186 875 1204Q841 1222 794.50 1239.50Q748 1257 689.50 1269.50Q631 1282 564 1282Q483 1282 447 1238Q411 1194 411 1106Q411 1060 432 1025Q453 990 490.50 961Q528 932 579.50 906.50Q631 881 693 854Q787 813 851 772Q915 731 953 690Q991 649 1007.50 606.50Q1024 564 1024 520Q1024 471 1009 432.50Q994 394 968 354L808 243Q849 214 876.50 185Q904 156 921 126.50Q938 97 945 67.50Q952 38 952 9Q952-40 934-84Q916-128 885-164.50Q854-201 813.50-230.50Q773-260 727.50-280Q682-300 634.50-311Q587-322 543-322Q486-322 437-316Q388-310 347.50-300.50Q307-291 275-280Q243-269 220-258L253-99M645 329Q678 315 706.50 301.50Q735 288 758 275Q784 291 805.50 314Q827 337 842 362.50Q857 388 865.50 415Q874 442 874 466Q874 511 851 550Q828 589 786.50 623.50Q745 658 687.50 688.50Q630 719 561 748Q529 762 500.50 775Q472 788 449 802Q422 786 400.50 763.50Q379 741 364 715Q349 689 340.50 662Q332 635 332 611Q332 566 355 527Q378 488 419.50 453.50Q461 419 518.50 388Q576 357 645 329Z"  horiz-adv-x="1205" vert-adv-y="2250"  />

      
      <glyph glyph-name="unia8" unicode="&#xa8;" d="M714 1132Q692 1132 672.50 1140.50Q653 1149 639 1163Q625 1177 616.50 1196.50Q608 1216 608 1239Q608 1261 616 1280.50Q624 1300 638.50 1314.50Q653 1329 672 1337Q691 1345 714 1345Q736 1345 756 1336.50Q776 1328 791 1314Q806 1300 814.50 1280.50Q823 1261 823 1239Q823 1216 814.50 1196.50Q806 1177 791 1163Q776 1149 756 1140.50Q736 1132 714 1132M307 1132Q285 1132 265.50 1140.50Q246 1149 232 1163Q218 1177 209.50 1196.50Q201 1216 201 1239Q201 1261 209 1280.50Q217 1300 231.50 1314.50Q246 1329 265 1337Q284 1345 307 1345Q329 1345 349 1336.50Q369 1328 384 1314Q399 1300 407.50 1280.50Q416 1261 416 1239Q416 1216 407.50 1196.50Q399 1177 384 1163Q369 1149 349 1140.50Q329 1132 307 1132Z"  horiz-adv-x="1024" vert-adv-y="2250"  />

      
      <glyph glyph-name="unia9" unicode="&#xa9;" d="M920-176Q812-176 711-147.50Q610-119 522.50-67.50Q435-16 362.50 56Q290 128 238.50 216Q187 304 158.50 404.50Q130 505 130 614Q130 721 158.50 821Q187 921 238.50 1008.50Q290 1096 362.50 1168Q435 1240 522.50 1291Q610 1342 710.50 1370.50Q811 1399 920 1399Q1028 1399 1128.50 1370.50Q1229 1342 1316 1291Q1403 1240 1475.50 1168Q1548 1096 1599 1008.50Q1650 921 1678.50 821Q1707 721 1707 614Q1707 506 1678.50 405Q1650 304 1599 216.50Q1548 129 1475.50 56.50Q1403-16 1316-67.50Q1229-119 1128.50-147.50Q1028-176 920-176M920-107Q1019-107 1110-81.50Q1201-56 1280-9.50Q1359 37 1423 102.50Q1487 168 1532.50 248.50Q1578 329 1603 421Q1628 513 1628 614Q1628 713 1603 804.50Q1578 896 1532.50 975.50Q1487 1055 1423 1120Q1359 1185 1280 1231.50Q1201 1278 1110 1303.50Q1019 1329 920 1329Q820 1329 728.50 1303.50Q637 1278 558.50 1231.50Q480 1185 415.50 1120Q351 1055 305.50 975.50Q260 896 235 804.50Q210 713 210 614Q210 514 235 421.50Q260 329 305.50 248.50Q351 168 415.50 102.50Q480 37 558.50-9.50Q637-56 728.50-81.50Q820-107 920-107M1256 371L1256 296Q1229 275 1196 254.50Q1163 234 1124.50 217.50Q1086 201 1042.50 191Q999 181 951 181Q853 181 772.50 210Q692 239 635 294Q578 349 546.50 428.50Q515 508 515 610Q515 708 547.50 787.50Q580 867 638.50 923.50Q697 980 777 1010.50Q857 1041 953 1041Q986 1041 1024 1036Q1062 1031 1100.50 1024.50Q1139 1018 1174.50 1010Q1210 1002 1239 996L1239 785L1178 785L1159 902Q1157 910 1146.50 918Q1136 926 1128 930Q1086 950 1044 960.50Q1002 971 948 971Q881 971 827 950.50Q773 930 734.50 888.50Q696 847 675.50 784.50Q655 722 655 637Q655 453 738.50 360Q822 267 988 267Q1031 267 1067 278Q1103 289 1132.50 305Q1162 321 1185.50 339Q1209 357 1227 371L1256 371Z"  horiz-adv-x="1837" vert-adv-y="2250"  />

      
      <glyph glyph-name="uniaa" unicode="&#xaa;" d="M575 760Q549 728 518.50 707.50Q488 687 457 674Q426 661 396 656Q366 651 341 651Q296 651 259 666.50Q222 682 195.50 709Q169 736 154.50 771Q140 806 140 845Q140 890 157 925.50Q174 961 202 988Q230 1015 266.50 1034Q303 1053 342 1065Q381 1077 420 1082.50Q459 1088 492 1088Q498 1088 509.50 1087Q521 1086 534 1085Q547 1084 560 1083Q573 1082 582 1082L583 1207Q583 1240 577 1261Q571 1282 557.50 1294.50Q544 1307 524.50 1312Q505 1317 478 1317Q442 1317 407 1304.50Q372 1292 340.50 1274.50Q309 1257 283 1238Q257 1219 238 1205L212 1205L187 1331Q211 1344 239.50 1356.50Q268 1369 300 1378.50Q332 1388 368 1393.50Q404 1399 443 1399Q491 1399 541.50 1386.50Q592 1374 632.50 1346.50Q673 1319 698.50 1274Q724 1229 723 1163L720 991Q720 958 719.50 924.50Q719 891 719 863Q719 835 718.50 814.50Q718 794 718 786Q718 777 722 770Q726 763 733 758Q740 753 750.50 750.50Q761 748 775 748Q779 748 787.50 749.50Q796 751 806 753Q816 755 826 757Q836 759 843 761L860 761L860 714Q848 706 829.50 695Q811 684 790 674Q769 664 746.50 657.50Q724 651 703 651Q645 651 615.50 675Q586 699 581 760L575 760M582 1031Q517 1031 463.50 1022Q410 1013 372 993.50Q334 974 313 944Q292 914 292 872Q292 837 303.50 813Q315 789 332.50 774Q350 759 371.50 752.50Q393 746 414 746Q435 746 458.50 750Q482 754 504.50 763Q527 772 546.50 785.50Q566 799 580 818L582 1031Z"  horiz-adv-x="964" vert-adv-y="2250"  />

      
      <glyph glyph-name="uniab" unicode="&#xab;" d="M212 492L212 581L562 930L646 930L370 537L646 140L562 140L212 492M611 492L611 581L960 930L1045 930L769 537L1045 140L960 140L611 492Z"  horiz-adv-x="1218" vert-adv-y="2250"  />

      
      <glyph glyph-name="uniac" unicode="&#xac;" d="M189 633L1147 633L1147 92L1034 92L1034 527L189 527L189 633Z"  horiz-adv-x="1354" vert-adv-y="2250"  />

      
      <glyph glyph-name="uniae" unicode="&#xae;" d="M920-176Q812-176 711-147.50Q610-119 522.50-67.50Q435-16 362.50 56Q290 128 238.50 216Q187 304 158.50 404.50Q130 505 130 614Q130 721 158.50 821Q187 921 238.50 1008.50Q290 1096 362.50 1168Q435 1240 522.50 1291Q610 1342 710.50 1370.50Q811 1399 920 1399Q1028 1399 1128.50 1370.50Q1229 1342 1316 1291Q1403 1240 1475.50 1168Q1548 1096 1599 1008.50Q1650 921 1678.50 821Q1707 721 1707 614Q1707 506 1678.50 405Q1650 304 1599 216.50Q1548 129 1475.50 56.50Q1403-16 1316-67.50Q1229-119 1128.50-147.50Q1028-176 920-176M920-107Q1019-107 1110-81.50Q1201-56 1280-9.50Q1359 37 1423 102.50Q1487 168 1532.50 248.50Q1578 329 1603 421Q1628 513 1628 614Q1628 713 1603 804.50Q1578 896 1532.50 975.50Q1487 1055 1423 1120Q1359 1185 1280 1231.50Q1201 1278 1110 1303.50Q1019 1329 920 1329Q820 1329 728.50 1303.50Q637 1278 558.50 1231.50Q480 1185 415.50 1120Q351 1055 305.50 975.50Q260 896 235 804.50Q210 713 210 614Q210 514 235 421.50Q260 329 305.50 248.50Q351 168 415.50 102.50Q480 37 558.50-9.50Q637-56 728.50-81.50Q820-107 920-107M554 250L648 280Q659 284 666.50 291Q674 298 674 313L674 928Q674 941 666 948.50Q658 956 648 959L554 990L554 1026L919 1026Q1019 1026 1081.50 1008Q1144 990 1179.50 961Q1215 932 1227.50 895.50Q1240 859 1240 822Q1240 774 1222.50 736.50Q1205 699 1176.50 671Q1148 643 1112 625Q1076 607 1039 598L1266 315Q1272 307 1285 294Q1298 281 1312 277L1411 250L1411 213L1263 213Q1233 213 1215.50 216Q1198 219 1185.50 227Q1173 235 1162.50 249Q1152 263 1136 284L922 558L795 584L795 313Q795 299 803 291.50Q811 284 821 281L916 250L916 213L554 213L554 250M795 637Q807 636 822.50 634.50Q838 633 854 632Q870 631 884.50 630Q899 629 908 629Q959 629 996.50 643Q1034 657 1059 680.50Q1084 704 1096 734.50Q1108 765 1108 798Q1108 888 1054 928Q1000 968 895 968L795 968L795 637Z"  horiz-adv-x="1837" vert-adv-y="2250"  />

      
      <glyph glyph-name="unib0" unicode="&#xb0;" d="M135 1169Q135 1237 157.50 1292Q180 1347 219.50 1385.50Q259 1424 314 1445Q369 1466 435 1466Q504 1466 559.50 1444.50Q615 1423 654 1384Q693 1345 714.50 1290.50Q736 1236 736 1169Q736 1103 714.50 1048Q693 993 654 953.50Q615 914 559.50 892Q504 870 435 870Q366 870 310.50 892Q255 914 216 954Q177 994 156 1048.50Q135 1103 135 1169M437 932Q470 932 501 946Q532 960 556 988.50Q580 1017 594 1060Q608 1103 608 1162Q608 1284 560 1344.50Q512 1405 434 1405Q394 1405 362.50 1388.50Q331 1372 309 1342Q287 1312 275 1268.50Q263 1225 263 1171Q263 1058 308 995Q353 932 437 932Z"  horiz-adv-x="871" vert-adv-y="2250"  />

      
      <glyph glyph-name="unib1" unicode="&#xb1;" d="M194 126L623 126L623 533L194 533L194 639L623 639L623 1073L732 1073L732 639L1160 639L1160 533L732 533L732 126L1160 126L1160 19L194 19L194 126Z"  horiz-adv-x="1354" vert-adv-y="2250"  />

      
      <glyph glyph-name="unib2" unicode="&#xb2;" d="M59 876Q158 966 239 1043.50Q320 1121 377.50 1194.50Q435 1268 466.50 1340.50Q498 1413 498 1492Q498 1537 492 1574.50Q486 1612 471.50 1639.50Q457 1667 432 1682.50Q407 1698 370 1698Q334 1698 300.50 1686.50Q267 1675 236.50 1656Q206 1637 176.50 1613.50Q147 1590 118 1566L99 1566L75 1689Q92 1700 119 1715Q146 1730 181.50 1743.50Q217 1757 258.50 1766Q300 1775 345 1775Q409 1775 465.50 1757.50Q522 1740 564 1706Q606 1672 630.50 1623Q655 1574 655 1510Q655 1431 618 1358.50Q581 1286 518.50 1214.50Q456 1143 372.50 1071Q289 999 196 921L196 918L277 922L566 922Q590 922 601.50 934.50Q613 947 618 961L644 1042L687 1042L668 796L59 796L59 876Z"  horiz-adv-x="752" vert-adv-y="2250"  />

      
      <glyph glyph-name="unib3" unicode="&#xb3;" d="M61 978L84 978Q100 962 129.50 940.50Q159 919 196 899.50Q233 880 275 866Q317 852 359 852Q409 852 442 864.50Q475 877 494.50 903Q514 929 522 968Q530 1007 530 1060Q530 1102 520 1138.50Q510 1175 486 1202Q462 1229 423 1245Q384 1261 327 1261L237 1261L237 1343L309 1343Q403 1343 450 1390.50Q497 1438 497 1544Q497 1580 492 1609Q487 1638 473.50 1657.50Q460 1677 436 1687.50Q412 1698 375 1698Q339 1698 304 1686.50Q269 1675 237 1658Q205 1641 177.50 1621.50Q150 1602 131 1586L113 1586L90 1705Q104 1713 128 1725Q152 1737 184.50 1748Q217 1759 258 1767Q299 1775 348 1775Q407 1775 462 1760.50Q517 1746 559 1718.50Q601 1691 626.50 1650Q652 1609 652 1557Q652 1524 641 1488.50Q630 1453 603 1419.50Q576 1386 530.50 1357Q485 1328 416 1308L416 1306Q458 1302 505.50 1286.50Q553 1271 593 1242.50Q633 1214 659 1170.50Q685 1127 685 1067Q685 995 655.50 940.50Q626 886 575.50 849.50Q525 813 457.50 794.50Q390 776 313 776Q265 776 223.50 783.50Q182 791 148.50 801.50Q115 812 88.50 824.50Q62 837 43 847L61 978Z"  horiz-adv-x="741" vert-adv-y="2250"  />

      
      <glyph glyph-name="unib4" unicode="&#xb4;" d="M348 1102Q384 1156 411 1199.50Q438 1243 460 1278Q482 1313 500 1342Q518 1371 535 1396Q551 1420 565 1435.50Q579 1451 592.50 1460Q606 1469 620.50 1472.50Q635 1476 652 1476Q667 1476 680 1470.50Q693 1465 702 1455.50Q711 1446 716.50 1433.50Q722 1421 722 1408Q722 1390 718 1377Q714 1364 706.50 1352.50Q699 1341 686.50 1329.50Q674 1318 658 1303Q637 1285 613.50 1264Q590 1243 559 1216Q528 1189 486 1154Q444 1119 386 1073L348 1102Z"  horiz-adv-x="1024" vert-adv-y="2250"  />

      
      <glyph glyph-name="unib6" unicode="&#xb6;" d="M613 704L539 704Q421 704 342.50 734.50Q264 765 217 813Q170 861 150.50 920.50Q131 980 131 1038Q131 1074 139 1113.50Q147 1153 164.50 1190.50Q182 1228 209.50 1262Q237 1296 275.50 1322Q314 1348 364 1363Q414 1378 478 1378L1104 1378L1104 1331L978 1305Q956 1300 943 1283.50Q930 1267 930 1245L930-322L859-322L859 1322L685 1322L685-322L613-322L613 704Z"  horiz-adv-x="1231" vert-adv-y="2250"  />

      
      <glyph glyph-name="unib7" unicode="&#xb7;" d="M135 548Q135 573 145 595.50Q155 618 172 635Q189 652 211.50 661.50Q234 671 260 671Q285 671 307.50 661.50Q330 652 346.50 635Q363 618 373 595.50Q383 573 383 548Q383 523 373 500.50Q363 478 346.50 461.50Q330 445 307.50 435Q285 425 260 425Q234 425 211.50 435Q189 445 172 461.50Q155 478 145 500.50Q135 523 135 548Z"  horiz-adv-x="518" vert-adv-y="2250"  />

      
      <glyph glyph-name="uni2219" unicode="&#x2219;" d="M135 548Q135 573 145 595.50Q155 618 172 635Q189 652 211.50 661.50Q234 671 260 671Q285 671 307.50 661.50Q330 652 346.50 635Q363 618 373 595.50Q383 573 383 548Q383 523 373 500.50Q363 478 346.50 461.50Q330 445 307.50 435Q285 425 260 425Q234 425 211.50 435Q189 445 172 461.50Q155 478 145 500.50Q135 523 135 548Z"  horiz-adv-x="518" vert-adv-y="2250"  />

      
      <glyph glyph-name="unib8" unicode="&#xb8;" d="M350-331L367-331Q394-347 434-362.50Q474-378 523-378Q583-378 611.50-351.50Q640-325 640-280Q640-255 632-238.50Q624-222 605-212Q586-202 556-197.50Q526-193 483-192L483 0L550 0L550-117Q590-117 627.50-124Q665-131 693.50-147.50Q722-164 739-191Q756-218 756-258Q756-302 739.50-337Q723-372 693.50-396Q664-420 622.50-433Q581-446 531-446Q474-446 430-432.50Q386-419 350-402L350-331Z"  horiz-adv-x="1024" vert-adv-y="2250"  />

      
      <glyph glyph-name="unib9" unicode="&#xb9;" d="M85 843L204 861Q218 863 226 874.50Q234 886 234 901L234 1537L238 1632L235 1632L59 1581L59 1633L316 1758L387 1758Q386 1736 385 1707.50Q384 1679 383.50 1649Q383 1619 382.50 1589Q382 1559 382 1535L382 901Q382 884 389.50 874Q397 864 412 861L523 843L523 796L85 796L85 843Z"  horiz-adv-x="574" vert-adv-y="2250"  />

      
      <glyph glyph-name="uniba" unicode="&#xba;" d="M490 645Q409 645 343.50 671.50Q278 698 232.50 747.50Q187 797 162.50 866Q138 935 138 1021Q138 1100 162 1169Q186 1238 232.50 1289Q279 1340 345.50 1369.50Q412 1399 498 1399Q589 1399 655.50 1367.50Q722 1336 765 1284Q808 1232 829 1164Q850 1096 850 1023Q850 945 826 876.50Q802 808 756 756.50Q710 705 643 675Q576 645 490 645M501 707Q560 707 597.50 736.50Q635 766 656.50 811Q678 856 686 909Q694 962 694 1009Q694 1067 683.50 1125.50Q673 1184 648.50 1231.50Q624 1279 584.50 1308.50Q545 1338 487 1338Q429 1338 391.50 1308.50Q354 1279 332.50 1234.50Q311 1190 302.50 1137Q294 1084 294 1037Q294 985 303 927Q312 869 335.50 820Q359 771 399 739Q439 707 501 707Z"  horiz-adv-x="988" vert-adv-y="2250"  />

      
      <glyph glyph-name="unibb" unicode="&#xbb;" d="M848 537L572 930L656 930L1006 581L1006 492L656 140L572 140L848 537M449 537L173 930L258 930L607 581L607 492L258 140L173 140L449 537Z"  horiz-adv-x="1218" vert-adv-y="2250"  />

      
      <glyph glyph-name="unibc" unicode="&#xbc;" d="M1173 1440L1271 1440L409-99L310-99L1173 1440M846 269L1318 873L1412 873L1412 276L1572 276L1572 181L1412 181L1412-4Q1412-20 1419.50-30Q1427-40 1442-44L1509-62L1509-99L1158-99L1158-62L1233-44Q1249-40 1256.50-30Q1264-20 1264-4L1264 181L846 181L846 269M1010 276L1264 276L1264 583L1265 668L1265 700L927 273L957 276L1010 276M85 544L204 562Q218 564 226 575.50Q234 587 234 602L234 1238L238 1333L235 1333L59 1282L59 1334L316 1459L387 1459Q386 1437 385 1408.50Q384 1380 383.50 1350Q383 1320 382.50 1290Q382 1260 382 1236L382 602Q382 585 389.50 575Q397 565 412 562L523 544L523 497L85 497L85 544Z"  horiz-adv-x="1597" vert-adv-y="2250"  />

      
      <glyph glyph-name="unibd" unicode="&#xbd;" d="M1173 1440L1271 1440L409-99L310-99L1173 1440M1042-19Q1141 71 1222 148.50Q1303 226 1360.50 299.50Q1418 373 1449.50 445.50Q1481 518 1481 597Q1481 642 1475 679.50Q1469 717 1454.50 744.50Q1440 772 1415 787.50Q1390 803 1353 803Q1317 803 1283.50 791.50Q1250 780 1219.50 761Q1189 742 1159.50 718.50Q1130 695 1101 671L1082 671L1058 794Q1075 805 1102 820Q1129 835 1164.50 848.50Q1200 862 1241.50 871Q1283 880 1328 880Q1392 880 1448.50 862.50Q1505 845 1547 811Q1589 777 1613.50 728Q1638 679 1638 615Q1638 536 1601 463.50Q1564 391 1501.50 319.50Q1439 248 1355.50 176Q1272 104 1179 26L1179 23L1260 27L1549 27Q1573 27 1584.50 39.50Q1596 52 1601 66L1627 147L1670 147L1651-99L1042-99L1042-19M85 544L204 562Q218 564 226 575.50Q234 587 234 602L234 1238L238 1333L235 1333L59 1282L59 1334L316 1459L387 1459Q386 1437 385 1408.50Q384 1380 383.50 1350Q383 1320 382.50 1290Q382 1260 382 1236L382 602Q382 585 389.50 575Q397 565 412 562L523 544L523 497L85 497L85 544Z"  horiz-adv-x="1735" vert-adv-y="2250"  />

      
      <glyph glyph-name="unibe" unicode="&#xbe;" d="M985 269L1457 873L1551 873L1551 276L1711 276L1711 181L1551 181L1551-4Q1551-20 1558.50-30Q1566-40 1581-44L1648-62L1648-99L1297-99L1297-62L1372-44Q1388-40 1395.50-30Q1403-20 1403-4L1403 181L985 181L985 269M1149 276L1403 276L1403 583L1404 668L1404 700L1066 273L1096 276L1149 276M1283 1440L1381 1440L519-99L420-99L1283 1440M61 679L84 679Q100 663 129.50 641.50Q159 620 196 600.50Q233 581 275 567Q317 553 359 553Q409 553 442 565.50Q475 578 494.50 604Q514 630 522 669Q530 708 530 761Q530 803 520 839.50Q510 876 486 903Q462 930 423 946Q384 962 327 962L237 962L237 1044L309 1044Q403 1044 450 1091.50Q497 1139 497 1245Q497 1281 492 1310Q487 1339 473.50 1358.50Q460 1378 436 1388.50Q412 1399 375 1399Q339 1399 304 1387.50Q269 1376 237 1359Q205 1342 177.50 1322.50Q150 1303 131 1287L113 1287L90 1406Q104 1414 128 1426Q152 1438 184.50 1449Q217 1460 258 1468Q299 1476 348 1476Q407 1476 462 1461.50Q517 1447 559 1419.50Q601 1392 626.50 1351Q652 1310 652 1258Q652 1225 641 1189.50Q630 1154 603 1120.50Q576 1087 530.50 1058Q485 1029 416 1009L416 1007Q458 1003 505.50 987.50Q553 972 593 943.50Q633 915 659 871.50Q685 828 685 768Q685 696 655.50 641.50Q626 587 575.50 550.50Q525 514 457.50 495.50Q390 477 313 477Q265 477 223.50 484.50Q182 492 148.50 502.50Q115 513 88.50 525.50Q62 538 43 548L61 679Z"  horiz-adv-x="1736" vert-adv-y="2250"  />

      
      <glyph glyph-name="unibf" unicode="&#xbf;" d="M588 727Q562 727 540 736.50Q518 746 501.50 763Q485 780 475.50 802Q466 824 466 850Q466 875 475.50 897.50Q485 920 501.50 936.50Q518 953 540 963Q562 973 588 973Q614 973 637 963Q660 953 677 936.50Q694 920 703.50 897.50Q713 875 713 850Q713 824 703.50 802Q694 780 677 763Q660 746 637 736.50Q614 727 588 727M820-219L847-370Q825-382 793-399Q761-416 720-431Q679-446 629.50-456.50Q580-467 523-467Q434-467 358.50-440Q283-413 228-362.50Q173-312 142-240Q111-168 111-77Q111 10 143.50 85.50Q176 161 233 218Q290 275 367.50 310.50Q445 346 535 354L566 585L627 585L627 225Q583 224 540 216.50Q497 209 458 194Q419 179 385.50 154.50Q352 130 327.50 94Q303 58 289 9Q275-40 275-103Q275-165 284.50-215Q294-265 315-301Q336-337 369.50-356.50Q403-376 451-376Q496-376 541.50-362Q587-348 630.50-325.50Q674-303 715.50-275Q757-247 795-219L820-219Z"  horiz-adv-x="970" vert-adv-y="2250"  />

      
      <glyph glyph-name="unic0" unicode="&#xc0;" d="M-57 47L29 72Q49 78 64.50 94.50Q80 111 88 131L485 1169L606 1399L645 1399L1135 131Q1143 111 1158.50 94.50Q1174 78 1194 72L1280 47L1280 0L793 0L793 47L967 80L801 512L317 512L162 84L332 47L332 0L-57 0L-57 47M770 588L606 1010L556 1145L555 1145L348 588L770 588M733 1486Q674 1532 632 1567Q590 1602 559 1629Q528 1656 505 1677Q482 1698 461 1716Q444 1731 432 1742.50Q420 1754 412 1765.50Q404 1777 400.50 1790Q397 1803 397 1821Q397 1834 402.50 1846.50Q408 1859 417 1868.50Q426 1878 439 1883.50Q452 1889 467 1889Q484 1889 498.50 1885.50Q513 1882 526.50 1873Q540 1864 554 1848.50Q568 1833 584 1809Q601 1784 619 1755Q637 1726 658.50 1691Q680 1656 707.50 1612.50Q735 1569 771 1515L733 1486Z"  horiz-adv-x="1225" vert-adv-y="2250"  />

      
      <glyph glyph-name="unic1" unicode="&#xc1;" d="M-57 47L29 72Q49 78 64.50 94.50Q80 111 88 131L485 1169L606 1399L645 1399L1135 131Q1143 111 1158.50 94.50Q1174 78 1194 72L1280 47L1280 0L793 0L793 47L967 80L801 512L317 512L162 84L332 47L332 0L-57 0L-57 47M770 588L606 1010L556 1145L555 1145L348 588L770 588M448 1515Q484 1569 511 1612.50Q538 1656 560 1691Q582 1726 600 1755Q618 1784 635 1809Q651 1833 665 1848.50Q679 1864 692.50 1873Q706 1882 720.50 1885.50Q735 1889 752 1889Q767 1889 780 1883.50Q793 1878 802 1868.50Q811 1859 816.50 1846.50Q822 1834 822 1821Q822 1803 818 1790Q814 1777 806.50 1765.50Q799 1754 786.50 1742.50Q774 1731 758 1716Q737 1698 713.50 1677Q690 1656 659 1629Q628 1602 586 1567Q544 1532 486 1486L448 1515Z"  horiz-adv-x="1225" vert-adv-y="2250"  />

      
      <glyph glyph-name="unic2" unicode="&#xc2;" d="M-57 47L29 72Q49 78 64.50 94.50Q80 111 88 131L485 1169L606 1399L645 1399L1135 131Q1143 111 1158.50 94.50Q1174 78 1194 72L1280 47L1280 0L793 0L793 47L967 80L801 512L317 512L162 84L332 47L332 0L-57 0L-57 47M770 588L606 1010L556 1145L555 1145L348 588L770 588M510 1795Q532 1830 554.50 1853.50Q577 1877 612 1877Q647 1877 670 1854Q693 1831 715 1796L901 1502L864 1475L614 1729L361 1475L324 1502L510 1795Z"  horiz-adv-x="1225" vert-adv-y="2250"  />

      
      <glyph glyph-name="unic3" unicode="&#xc3;" d="M-57 47L29 72Q49 78 64.50 94.50Q80 111 88 131L485 1169L606 1399L645 1399L1135 131Q1143 111 1158.50 94.50Q1174 78 1194 72L1280 47L1280 0L793 0L793 47L967 80L801 512L317 512L162 84L332 47L332 0L-57 0L-57 47M770 588L606 1010L556 1145L555 1145L348 588L770 588M306 1535Q313 1578 331 1617Q349 1656 375.50 1686Q402 1716 435 1733.50Q468 1751 504 1751Q530 1751 564 1739.50Q598 1728 636 1708Q682 1683 711.50 1673Q741 1663 758 1663Q779 1663 796.50 1670.50Q814 1678 826.50 1691.50Q839 1705 848 1723.50Q857 1742 862 1764L918 1764Q910 1722 892.50 1683Q875 1644 850 1614.50Q825 1585 793 1567Q761 1549 724 1549Q710 1549 697 1551Q684 1553 668.50 1558Q653 1563 635 1571.50Q617 1580 594 1593Q549 1618 517.50 1628.50Q486 1639 469 1639Q427 1639 399 1609.50Q371 1580 360 1535L306 1535Z"  horiz-adv-x="1225" vert-adv-y="2250"  />

      
      <glyph glyph-name="unic4" unicode="&#xc4;" d="M-57 47L29 72Q49 78 64.50 94.50Q80 111 88 131L485 1169L606 1399L645 1399L1135 131Q1143 111 1158.50 94.50Q1174 78 1194 72L1280 47L1280 0L793 0L793 47L967 80L801 512L317 512L162 84L332 47L332 0L-57 0L-57 47M770 588L606 1010L556 1145L555 1145L348 588L770 588M814 1535Q792 1535 772.50 1543.50Q753 1552 739 1566Q725 1580 716.50 1599.50Q708 1619 708 1642Q708 1664 716 1683.50Q724 1703 738.50 1717.50Q753 1732 772 1740Q791 1748 814 1748Q836 1748 856 1739.50Q876 1731 891 1717Q906 1703 914.50 1683.50Q923 1664 923 1642Q923 1619 914.50 1599.50Q906 1580 891 1566Q876 1552 856 1543.50Q836 1535 814 1535M407 1535Q385 1535 365.50 1543.50Q346 1552 332 1566Q318 1580 309.50 1599.50Q301 1619 301 1642Q301 1664 309 1683.50Q317 1703 331.50 1717.50Q346 1732 365 1740Q384 1748 407 1748Q429 1748 449 1739.50Q469 1731 484 1717Q499 1703 507.50 1683.50Q516 1664 516 1642Q516 1619 507.50 1599.50Q499 1580 484 1566Q469 1552 449 1543.50Q429 1535 407 1535Z"  horiz-adv-x="1225" vert-adv-y="2250"  />

      
      <glyph glyph-name="unic5" unicode="&#xc5;" d="M-57 47L29 72Q49 78 64.50 94.50Q80 111 88 131L485 1169L606 1399L645 1399L1135 131Q1143 111 1158.50 94.50Q1174 78 1194 72L1280 47L1280 0L793 0L793 47L967 80L801 512L317 512L162 84L332 47L332 0L-57 0L-57 47M770 588L606 1010L556 1145L555 1145L348 588L770 588M399 1656Q399 1703 416 1740Q433 1777 463 1802.50Q493 1828 533.50 1841Q574 1854 621 1854Q666 1854 703.50 1841.50Q741 1829 768 1804.50Q795 1780 810 1744Q825 1708 825 1661Q825 1613 807.50 1576Q790 1539 760.50 1513.50Q731 1488 691.50 1475Q652 1462 608 1462Q563 1462 524.50 1474.50Q486 1487 458 1511.50Q430 1536 414.50 1572Q399 1608 399 1656M621 1513Q670 1513 697.50 1548Q725 1583 725 1646Q725 1680 716 1709Q707 1738 691.50 1759Q676 1780 654.50 1791.50Q633 1803 608 1803Q557 1803 528.50 1769Q500 1735 500 1668Q500 1632 509.50 1603.50Q519 1575 535.50 1555Q552 1535 574 1524Q596 1513 621 1513Z"  horiz-adv-x="1225" vert-adv-y="2250"  />

      
      <glyph glyph-name="unic6" unicode="&#xc6;" d="M-65 47L28 72Q49 78 69 94.50Q89 111 103 131L788 1190Q802 1212 813.50 1231.50Q825 1251 825 1268Q825 1288 806.50 1294.50Q788 1301 768 1305L641 1331L641 1378L1825 1378L1825 1055L1769 1055L1698 1268Q1693 1283 1684 1293Q1675 1303 1657 1303L1175 1303L1175 716L1491 716Q1511 716 1520 725Q1529 734 1534 748L1591 912L1640 912L1640 458L1591 458L1534 605Q1529 621 1520 630.50Q1511 640 1491 640L1175 640L1175 76L1743 76Q1761 76 1770 85.50Q1779 95 1784 111L1851 352L1907 352L1907 0L821 0L821 47L948 74Q968 79 981.50 95Q995 111 995 133L995 640L524 640L173 84L333 47L333 0L-65 0L-65 47M995 716L995 1309L959 1309L574 716L995 716Z"  horiz-adv-x="1962" vert-adv-y="2250"  />

      
      <glyph glyph-name="unic7" unicode="&#xc7;" d="M523-331L540-331Q567-347 607-362.50Q647-378 696-378Q756-378 783.50-351.50Q811-325 811-280Q811-255 803-238.50Q795-222 777-212Q759-202 729-197.50Q699-193 656-192L656-26Q519-16 409.50 38Q300 92 223 183.50Q146 275 104.50 402Q63 529 63 686Q63 846 113.50 979Q164 1112 253 1207Q342 1302 462.50 1354.50Q583 1407 724 1407Q773 1407 832 1400Q891 1393 950 1382Q1009 1371 1063 1357Q1117 1343 1157 1329L1157 1010L1104 1010L1040 1185Q1035 1204 1024 1213Q1013 1222 999 1230Q967 1248 927 1264Q887 1280 843 1292.50Q799 1305 754.50 1312Q710 1319 669 1319Q580 1319 505 1281.50Q430 1244 376 1169Q322 1094 292 981.50Q262 869 262 719Q262 406 395 249Q528 92 776 92Q858 92 922 109.50Q986 127 1037 153.50Q1088 180 1126.50 211Q1165 242 1196 269L1214 269L1214 185Q1175 152 1123.50 115.50Q1072 79 1011.50 48Q951 17 884-4Q817-25 746-28Q740-29 734.50-29Q729-29 723-29L723-117Q764-117 801.50-124Q839-131 868-147.50Q897-164 914-191Q931-218 931-258Q931-302 914.50-337Q898-372 868-396Q838-420 796-433Q754-446 704-446Q647-446 603-432.50Q559-419 523-402L523-331Z"  horiz-adv-x="1243" vert-adv-y="2250"  />

      
      <glyph glyph-name="unic8" unicode="&#xc8;" d="M47 47L174 74Q194 79 207.50 95Q221 111 221 133L221 1245Q221 1268 207.50 1284Q194 1300 174 1305L47 1331L47 1378L1051 1378L1051 1055L995 1055L924 1268Q919 1283 910 1293Q901 1303 883 1303L401 1303L401 756L717 756Q737 756 746 765Q755 774 760 788L817 952L866 952L866 483L817 483L760 645Q755 661 746 670.50Q737 680 717 680L401 680L401 76L969 76Q987 76 996 85.50Q1005 95 1010 111L1077 352L1133 352L1133 0L47 0L47 47M745 1486Q686 1532 644 1567Q602 1602 571 1629Q540 1656 517 1677Q494 1698 473 1716Q456 1731 444 1742.50Q432 1754 424 1765.50Q416 1777 412.50 1790Q409 1803 409 1821Q409 1834 414.50 1846.50Q420 1859 429 1868.50Q438 1878 451 1883.50Q464 1889 479 1889Q496 1889 510.50 1885.50Q525 1882 538.50 1873Q552 1864 566 1848.50Q580 1833 596 1809Q613 1784 631 1755Q649 1726 670.50 1691Q692 1656 719.50 1612.50Q747 1569 783 1515L745 1486Z"  horiz-adv-x="1188" vert-adv-y="2250"  />

      
      <glyph glyph-name="unic9" unicode="&#xc9;" d="M47 47L174 74Q194 79 207.50 95Q221 111 221 133L221 1245Q221 1268 207.50 1284Q194 1300 174 1305L47 1331L47 1378L1051 1378L1051 1055L995 1055L924 1268Q919 1283 910 1293Q901 1303 883 1303L401 1303L401 756L717 756Q737 756 746 765Q755 774 760 788L817 952L866 952L866 483L817 483L760 645Q755 661 746 670.50Q737 680 717 680L401 680L401 76L969 76Q987 76 996 85.50Q1005 95 1010 111L1077 352L1133 352L1133 0L47 0L47 47M470 1515Q506 1569 533 1612.50Q560 1656 582 1691Q604 1726 622 1755Q640 1784 657 1809Q673 1833 687 1848.50Q701 1864 714.50 1873Q728 1882 742.50 1885.50Q757 1889 774 1889Q789 1889 802 1883.50Q815 1878 824 1868.50Q833 1859 838.50 1846.50Q844 1834 844 1821Q844 1803 840 1790Q836 1777 828.50 1765.50Q821 1754 808.50 1742.50Q796 1731 780 1716Q759 1698 735.50 1677Q712 1656 681 1629Q650 1602 608 1567Q566 1532 508 1486L470 1515Z"  horiz-adv-x="1188" vert-adv-y="2250"  />

      
      <glyph glyph-name="unica" unicode="&#xca;" d="M47 47L174 74Q194 79 207.50 95Q221 111 221 133L221 1245Q221 1268 207.50 1284Q194 1300 174 1305L47 1331L47 1378L1051 1378L1051 1055L995 1055L924 1268Q919 1283 910 1293Q901 1303 883 1303L401 1303L401 756L717 756Q737 756 746 765Q755 774 760 788L817 952L866 952L866 483L817 483L760 645Q755 661 746 670.50Q737 680 717 680L401 680L401 76L969 76Q987 76 996 85.50Q1005 95 1010 111L1077 352L1133 352L1133 0L47 0L47 47M508 1805Q530 1840 552.50 1863.50Q575 1887 610 1887Q645 1887 668 1864Q691 1841 713 1806L899 1512L862 1485L612 1739L359 1485L322 1512L508 1805Z"  horiz-adv-x="1188" vert-adv-y="2250"  />

      
      <glyph glyph-name="unicb" unicode="&#xcb;" d="M47 47L174 74Q194 79 207.50 95Q221 111 221 133L221 1245Q221 1268 207.50 1284Q194 1300 174 1305L47 1331L47 1378L1051 1378L1051 1055L995 1055L924 1268Q919 1283 910 1293Q901 1303 883 1303L401 1303L401 756L717 756Q737 756 746 765Q755 774 760 788L817 952L866 952L866 483L817 483L760 645Q755 661 746 670.50Q737 680 717 680L401 680L401 76L969 76Q987 76 996 85.50Q1005 95 1010 111L1077 352L1133 352L1133 0L47 0L47 47M810 1544Q788 1544 768.50 1552.50Q749 1561 735 1575Q721 1589 712.50 1608.50Q704 1628 704 1651Q704 1673 712 1692.50Q720 1712 734.50 1726.50Q749 1741 768 1749Q787 1757 810 1757Q832 1757 852 1748.50Q872 1740 887 1726Q902 1712 910.50 1692.50Q919 1673 919 1651Q919 1628 910.50 1608.50Q902 1589 887 1575Q872 1561 852 1552.50Q832 1544 810 1544M403 1544Q381 1544 361.50 1552.50Q342 1561 328 1575Q314 1589 305.50 1608.50Q297 1628 297 1651Q297 1673 305 1692.50Q313 1712 327.50 1726.50Q342 1741 361 1749Q380 1757 403 1757Q425 1757 445 1748.50Q465 1740 480 1726Q495 1712 503.50 1692.50Q512 1673 512 1651Q512 1628 503.50 1608.50Q495 1589 480 1575Q465 1561 445 1552.50Q425 1544 403 1544Z"  horiz-adv-x="1188" vert-adv-y="2250"  />

      
      <glyph glyph-name="unicc" unicode="&#xcc;" d="M47 47L174 74Q194 79 207.50 95Q221 111 221 133L221 1245Q221 1268 207.50 1284Q194 1300 174 1305L47 1331L47 1378L575 1378L575 1331L449 1305Q429 1300 415 1283.50Q401 1267 401 1245L401 133Q401 110 414.50 94.50Q428 79 449 74L575 47L575 0L47 0L47 47M453 1486Q394 1532 352 1567Q310 1602 279 1629Q248 1656 225 1677Q202 1698 181 1716Q164 1731 152 1742.50Q140 1754 132 1765.50Q124 1777 120.50 1790Q117 1803 117 1821Q117 1834 122.50 1846.50Q128 1859 137 1868.50Q146 1878 159 1883.50Q172 1889 187 1889Q204 1889 218.50 1885.50Q233 1882 246.50 1873Q260 1864 274 1848.50Q288 1833 304 1809Q321 1784 339 1755Q357 1726 378.50 1691Q400 1656 427.50 1612.50Q455 1569 491 1515L453 1486Z"  horiz-adv-x="623" vert-adv-y="2250"  />

      
      <glyph glyph-name="unicd" unicode="&#xcd;" d="M47 47L174 74Q194 79 207.50 95Q221 111 221 133L221 1245Q221 1268 207.50 1284Q194 1300 174 1305L47 1331L47 1378L575 1378L575 1331L449 1305Q429 1300 415 1283.50Q401 1267 401 1245L401 133Q401 110 414.50 94.50Q428 79 449 74L575 47L575 0L47 0L47 47M148 1515Q184 1569 211 1612.50Q238 1656 260 1691Q282 1726 300 1755Q318 1784 335 1809Q351 1833 365 1848.50Q379 1864 392.50 1873Q406 1882 420.50 1885.50Q435 1889 452 1889Q467 1889 480 1883.50Q493 1878 502 1868.50Q511 1859 516.50 1846.50Q522 1834 522 1821Q522 1803 518 1790Q514 1777 506.50 1765.50Q499 1754 486.50 1742.50Q474 1731 458 1716Q437 1698 413.50 1677Q390 1656 359 1629Q328 1602 286 1567Q244 1532 186 1486L148 1515Z"  horiz-adv-x="623" vert-adv-y="2250"  />

      
      <glyph glyph-name="unice" unicode="&#xce;" d="M47 47L174 74Q194 79 207.50 95Q221 111 221 133L221 1245Q221 1268 207.50 1284Q194 1300 174 1305L47 1331L47 1378L575 1378L575 1331L449 1305Q429 1300 415 1283.50Q401 1267 401 1245L401 133Q401 110 414.50 94.50Q428 79 449 74L575 47L575 0L47 0L47 47M210 1805Q232 1840 254.50 1863.50Q277 1887 312 1887Q347 1887 370 1864Q393 1841 415 1806L601 1512L564 1485L314 1739L61 1485L24 1512L210 1805Z"  horiz-adv-x="623" vert-adv-y="2250"  />

      
      <glyph glyph-name="unicf" unicode="&#xcf;" d="M47 47L174 74Q194 79 207.50 95Q221 111 221 133L221 1245Q221 1268 207.50 1284Q194 1300 174 1305L47 1331L47 1378L575 1378L575 1331L449 1305Q429 1300 415 1283.50Q401 1267 401 1245L401 133Q401 110 414.50 94.50Q428 79 449 74L575 47L575 0L47 0L47 47M514 1544Q492 1544 472.50 1552.50Q453 1561 439 1575Q425 1589 416.50 1608.50Q408 1628 408 1651Q408 1673 416 1692.50Q424 1712 438.50 1726.50Q453 1741 472 1749Q491 1757 514 1757Q536 1757 556 1748.50Q576 1740 591 1726Q606 1712 614.50 1692.50Q623 1673 623 1651Q623 1628 614.50 1608.50Q606 1589 591 1575Q576 1561 556 1552.50Q536 1544 514 1544M107 1544Q85 1544 65.50 1552.50Q46 1561 32 1575Q18 1589 9.50 1608.50Q1 1628 1 1651Q1 1673 9 1692.50Q17 1712 31.50 1726.50Q46 1741 65 1749Q84 1757 107 1757Q129 1757 149 1748.50Q169 1740 184 1726Q199 1712 207.50 1692.50Q216 1673 216 1651Q216 1628 207.50 1608.50Q199 1589 184 1575Q169 1561 149 1552.50Q129 1544 107 1544Z"  horiz-adv-x="623" vert-adv-y="2250"  />

      
      <glyph glyph-name="unid0" unicode="&#xd0;" d="M221 678L57 678L57 756L221 756L221 1245Q221 1268 207.50 1284Q194 1300 174 1305L47 1331L47 1378L618 1378Q685 1378 762 1365Q839 1352 915 1321Q991 1290 1061 1238.50Q1131 1187 1185 1110Q1239 1033 1271 927.50Q1303 822 1303 684Q1303 508 1248.50 379Q1194 250 1100 166Q1006 82 880.50 41Q755 0 614 0L47 0L47 47L174 74Q194 79 207.50 95Q221 111 221 133L221 678M401 756L727 756L727 678L401 678L401 74L631 74Q751 74 839.50 113Q928 152 987 226Q1046 300 1075 408Q1104 516 1104 653Q1104 804 1065.50 924.50Q1027 1045 957 1129.50Q887 1214 788.50 1259.50Q690 1305 571 1305L401 1305L401 756Z"  horiz-adv-x="1366" vert-adv-y="2250"  />

      
      <glyph glyph-name="unid1" unicode="&#xd1;" d="M47 47L174 80Q194 85 207.50 101.50Q221 118 221 139L221 1241Q221 1264 207.50 1279.50Q194 1295 174 1300L37 1331L37 1378L373 1378L1034 428L1128 291L1128 291L1128 1239Q1128 1262 1114.50 1277.50Q1101 1293 1081 1298L954 1331L954 1378L1389 1378L1389 1331L1262 1298Q1242 1293 1228 1277Q1214 1261 1214 1239L1214 229L1184-10L1128-10L412 1018L307 1171L307 1171L307 139Q307 116 320.50 100.50Q334 85 354 80L481 47L481 0L47 0L47 47M450 1544Q457 1587 475 1626Q493 1665 519.50 1695Q546 1725 579 1742.50Q612 1760 648 1760Q674 1760 708 1748.50Q742 1737 780 1717Q826 1692 855.50 1682Q885 1672 902 1672Q923 1672 940.50 1679.50Q958 1687 970.50 1700.50Q983 1714 992 1732.50Q1001 1751 1006 1773L1062 1773Q1054 1731 1036.50 1692Q1019 1653 994 1623.50Q969 1594 937 1576Q905 1558 868 1558Q854 1558 841 1560Q828 1562 812.50 1567Q797 1572 779 1580.50Q761 1589 738 1602Q693 1627 661.50 1637.50Q630 1648 613 1648Q571 1648 543 1618.50Q515 1589 504 1544L450 1544Z"  horiz-adv-x="1415" vert-adv-y="2250"  />

      
      <glyph glyph-name="unid2" unicode="&#xd2;" d="M698-31Q545-31 427 22.50Q309 76 228 171.50Q147 267 105 399.50Q63 532 63 690Q63 840 106.50 971Q150 1102 232 1199.50Q314 1297 432 1353Q550 1409 700 1409Q862 1409 981.50 1351.50Q1101 1294 1179.50 1196Q1258 1098 1296.50 967.50Q1335 837 1335 690Q1335 603 1319 516Q1303 429 1269.50 349Q1236 269 1184.50 199.50Q1133 130 1062 79Q991 28 900.50-1.50Q810-31 698-31M717 41Q822 41 900.50 88.50Q979 136 1031.50 219Q1084 302 1110.50 414.50Q1137 527 1137 657Q1137 807 1109.50 932Q1082 1057 1025.50 1147Q969 1237 883 1287Q797 1337 680 1337Q569 1337 489.50 1286Q410 1235 359.50 1150.50Q309 1066 285.50 955.50Q262 845 262 725Q262 578 289 453Q316 328 372 236.50Q428 145 513.50 93Q599 41 717 41M840 1486Q781 1532 739 1567Q697 1602 666 1629Q635 1656 612 1677Q589 1698 568 1716Q551 1731 539 1742.50Q527 1754 519 1765.50Q511 1777 507.50 1790Q504 1803 504 1821Q504 1834 509.50 1846.50Q515 1859 524 1868.50Q533 1878 546 1883.50Q559 1889 574 1889Q591 1889 605.50 1885.50Q620 1882 633.50 1873Q647 1864 661 1848.50Q675 1833 691 1809Q708 1784 726 1755Q744 1726 765.50 1691Q787 1656 814.50 1612.50Q842 1569 878 1515L840 1486Z"  horiz-adv-x="1399" vert-adv-y="2250"  />

      
      </font>
</defs>
</svg>
